<svg xmlns="http://www.w3.org/2000/svg" viewBox="0 0 3197 2000"><defs><style>.a{isolation:isolate;}.b,.e,.o,.p{fill:#fff;}.c{fill:#f4b98c;}.as,.c,.k,.r,.s{mix-blend-mode:multiply;}.c,.d,.r,.s{opacity:0.3;}.ae,.d{fill:#9bc1f9;}.as,.au,.e,.o{opacity:0.5;}.f{fill:#355389;}.g{fill:#3c8f7c;}.h{fill:#50bfa5;}.i,.r{fill:#e25a44;}.j,.k{fill:#fcf5eb;}.l{fill:#184655;}.m{fill:#86b1f2;}.as,.au,.n{fill:#f47458;}.o,.p{mix-blend-mode:overlay;}.p{opacity:0.2;}.q{fill:#0e2e35;}.s,.u{fill:#f7cc7f;}.t{fill:#31535b;}.v{fill:#f8a492;}.w{fill:#f7a491;}.x{fill:#466eb6;}.y{fill:#964538;}.z{fill:#b75742;}.aa{fill:#13375b;}.ab{fill:#f48c7f;}.ac{fill:#89a6e5;}.ad{fill:#96d9c9;}.af{fill:#ea9486;}.ag{fill:#c8c6af;}.ah{fill:#eafcfc;}.ai{fill:#f79c8d;}.aj{fill:#4570af;}.ak{fill:#e5ecf2;opacity:0.6;}.al{fill:#aaa896;}.am{fill:#071b1e;}.an{fill:#7f7f79;}.ao{fill:#1e634f;}.ap{fill:#adac9e;}.aq{fill:#327f6b;}.ar{fill:#1b1811;}.at{fill:#eab054;}</style></defs><g class="a"><rect class="b" width="3197" height="2000"/><path class="c" d="M1834.54,1910.33c38.18,0,315-61.37,353-58.08,92.5,8,185,35.3,276.73,21.17,83.28-12.83,159.19-59.07,243-67.45,27.61-2.75,55.84-1.36,82.68-8.4,26.59-7,61.35-35,81.3-49.39,1.76-1.27-21.29-8.72-21.29-8.72l-2481,8.72s20,59.49,72.85,72.27c248.8,60.15,418.19,8.86,673.12,31.84,68.4,6.17,168.92,51.35,237.26,58C1425,1917.46,1797.12,1910.33,1834.54,1910.33Z"/><path class="d" d="M413.92,1747.68H2839.84c201.08-149.94,97.6-601.12-70.35-692.58-180.78-98.45,106.29-438.94-172.2-549.46-181.84-72.16-428.27,8.45-548.65-146.89-141.43-182.52-376.38-404.68-813.95-232C897.21,259.85,1080.51,516.54,528.25,593.82c-284,39.74-229.09,379.74-202.62,450,23.07,61.2,175.64,158.26-36.4,291.93C-21.71,1531.75,406.59,1744.08,413.92,1747.68Z"/><path class="e" d="M1598.48,307.15a48.11,48.11,0,0,0-59.14-36,70.8,70.8,0,0,0-85.38-38,87.25,87.25,0,0,0-157.13,15.38,59.49,59.49,0,0,0-29.17-7.62,60.2,60.2,0,0,0-60,60.38c0,2,.1,3.94.29,5.86Z"/><path class="e" d="M2164.64,612.39a24.27,24.27,0,0,1,29.82-18.17,35.73,35.73,0,0,1,32.4-20.75,35.33,35.33,0,0,1,10.64,1.62,44,44,0,0,1,79.21,7.75,30,30,0,0,1,14.71-3.84,30.35,30.35,0,0,1,30.25,30.44,28.7,28.7,0,0,1-.15,2.95Z"/><path class="e" d="M1903,490.53A32.7,32.7,0,0,0,1862.81,466a48.1,48.1,0,0,0-58-25.78,59.26,59.26,0,0,0-106.72,10.45,40.4,40.4,0,0,0-19.82-5.18,40.89,40.89,0,0,0-40.76,41c0,1.34.07,2.67.2,4Z"/><path class="e" d="M982.71,580.28a22,22,0,0,1,27-16.49,32.38,32.38,0,0,1,39-17.35,39.89,39.89,0,0,1,71.84,7A27.25,27.25,0,0,1,1134,550a27.52,27.52,0,0,1,27.44,27.61,26.43,26.43,0,0,1-.13,2.68Z"/><rect class="f" x="2802.56" y="1584.83" width="8.34" height="146.14"/><polygon class="g" points="2808.91 1324.29 2767.82 1619.26 2850.01 1619.26 2808.91 1324.29"/><polygon class="h" points="2770.43 1600.55 2844.17 1577.3 2843.05 1569.3 2771.64 1591.81 2770.43 1600.55"/><polygon class="h" points="2783.41 1507.36 2832.28 1491.95 2831.16 1483.95 2784.63 1498.62 2783.41 1507.36"/><rect class="f" x="537.23" y="1572.42" width="7.14" height="83.75"/><polygon class="g" points="542.05 1423.09 518.5 1592.15 565.61 1592.15 542.05 1423.09"/><polygon class="h" points="520 1581.42 562.26 1568.1 561.62 1563.52 520.69 1576.42 520 1581.42"/><polygon class="h" points="527.43 1528.02 555.44 1519.18 554.8 1514.6 528.13 1523.01 527.43 1528.02"/><rect class="f" x="457.7" y="1574.68" width="10.76" height="119.26"/><polygon class="g" points="463.08 1343.33 427.96 1627.15 498.2 1627.15 463.08 1343.33"/><polygon class="h" points="440.7 1524.21 490.78 1567.15 488.85 1551.59 442.26 1511.64 440.7 1524.21"/><polygon class="h" points="448.4 1462 479.06 1472.48 477.62 1460.83 449.72 1451.3 448.4 1462"/><rect class="f" x="2731.94" y="1595.23" width="7.08" height="78.49"/><polygon class="g" points="2735.48 1442.96 2712.37 1629.76 2758.6 1629.76 2735.48 1442.96"/><polygon class="h" points="2720.75 1562.01 2753.71 1590.27 2752.45 1580.03 2721.78 1553.73 2720.75 1562.01"/><polygon class="h" points="2725.82 1521.06 2746 1527.96 2745.05 1520.3 2726.69 1514.02 2725.82 1521.06"/><path class="g" d="M2617.35,1699.35a62.63,62.63,0,0,0,.88-10.48c0-39.71-37.22-71.91-83.13-71.91s-83.13,32.2-83.13,71.91a62.63,62.63,0,0,0,.88,10.48Z"/><path class="h" d="M2711.44,1681.68a126,126,0,0,0,.87-14.78c0-56-37.21-101.41-83.13-101.41s-83.13,45.4-83.13,101.41a123.9,123.9,0,0,0,.88,14.78Z"/><path class="h" d="M2681,1743.82a62.63,62.63,0,0,1-.88-10.48c0-39.72,37.22-71.91,83.13-71.91s83.13,32.19,83.13,71.91a62.63,62.63,0,0,1-.88,10.48Z"/><path class="g" d="M2548,1743.82a98.8,98.8,0,0,1-1.11-14.78c0-56,47.18-101.41,105.38-101.41S2757.61,1673,2757.61,1729a97.49,97.49,0,0,1-1.12,14.78Z"/><path class="h" d="M2628.87,1627.63c-29.09,0-55.08,14.4-72.23,37a119.84,119.84,0,0,0-27.63-3.19c-51.64,0-93.51,32.19-93.51,71.91a56.06,56.06,0,0,0,1,10.48h284.9a110.73,110.73,0,0,0,1-14.78C2722.38,1673,2680.51,1627.63,2628.87,1627.63Z"/><path class="g" d="M637.41,1699.35a62.63,62.63,0,0,1-.88-10.48c0-39.71,37.22-71.91,83.13-71.91s83.13,32.2,83.13,71.91a62.63,62.63,0,0,1-.88,10.48Z"/><path class="h" d="M543.33,1681.68a123.9,123.9,0,0,1-.88-14.78c0-56,37.22-101.41,83.13-101.41s83.13,45.4,83.13,101.41a123.9,123.9,0,0,1-.88,14.78Z"/><path class="h" d="M573.76,1743.82a62.63,62.63,0,0,0,.88-10.48c0-39.72-37.22-71.91-83.13-71.91s-83.13,32.19-83.13,71.91a62.63,62.63,0,0,0,.88,10.48Z"/><path class="g" d="M706.81,1743.82a98.8,98.8,0,0,0,1.11-14.78c0-56-47.18-101.41-105.38-101.41S497.15,1673,497.15,1729a97.49,97.49,0,0,0,1.12,14.78Z"/><path class="h" d="M625.89,1627.63c29.09,0,55.08,14.4,72.23,37a119.84,119.84,0,0,1,27.63-3.19c51.64,0,93.51,32.19,93.51,71.91a56.06,56.06,0,0,1-1,10.48H533.37a110.73,110.73,0,0,1-1-14.78C532.38,1673,574.25,1627.63,625.89,1627.63Z"/><rect class="i" x="1984.34" y="593.7" width="6.48" height="44.28"/><rect class="i" x="1932.93" y="593.7" width="6.48" height="44.28"/><rect class="i" x="1881.52" y="593.7" width="6.48" height="44.28"/><rect class="i" x="1830.12" y="593.7" width="6.48" height="44.28"/><rect class="j" x="1991" y="983.5" width="59.83" height="740.91"/><rect class="i" x="1778.71" y="593.7" width="6.48" height="44.28"/><rect class="i" x="1727.3" y="593.7" width="6.48" height="44.28"/><rect class="i" x="1675.89" y="593.7" width="6.48" height="44.28"/><rect class="i" x="1624.48" y="593.7" width="6.48" height="44.28"/><rect class="j" x="1320.13" y="587.49" width="258.56" height="44.36"/><rect class="j" x="1988.97" y="686.87" width="420.43" height="243.01" transform="translate(4398.38 1616.74) rotate(180)"/><rect class="k" x="1988.97" y="686.87" width="49.55" height="243.01" transform="translate(4027.5 1616.74) rotate(180)"/><rect class="l" x="1785.9" y="675.15" width="642.74" height="23.42" transform="translate(4214.53 1373.73) rotate(180)"/><rect class="m" x="2281.62" y="748.24" width="128.28" height="95.96" transform="translate(3141.98 -1549.55) rotate(90)"/><rect class="m" x="2161.62" y="748.24" width="128.28" height="95.96" transform="translate(3021.98 -1429.55) rotate(90)"/><rect class="m" x="2044.07" y="748.24" width="128.28" height="95.96" transform="translate(2904.43 -1312) rotate(90)"/><rect class="j" x="847.51" y="686.87" width="420.43" height="243.01"/><rect class="k" x="1218.39" y="686.87" width="49.55" height="243.01"/><rect class="j" x="1988.02" y="933.48" width="531.38" height="810.34" transform="translate(4507.42 2677.3) rotate(180)"/><rect class="l" x="1784.94" y="921.77" width="754.85" height="23.42" transform="translate(4324.74 1866.96) rotate(180)"/><rect class="m" x="2315.42" y="945.38" width="128.28" height="204.26" transform="translate(3427.07 -1332.05) rotate(90)"/><rect class="m" x="2315.42" y="1094.21" width="128.28" height="204.26" transform="translate(3575.91 -1183.22) rotate(90)"/><rect class="m" x="2315.42" y="1243.05" width="128.29" height="204.26" transform="translate(3724.74 -1034.38) rotate(90)"/><rect class="m" x="2315.42" y="1391.89" width="128.28" height="204.26" transform="translate(3873.58 -885.55) rotate(90)"/><rect class="m" x="2315.42" y="1540.72" width="128.28" height="204.26" transform="translate(4022.41 -736.71) rotate(90)"/><rect class="m" x="2088.94" y="945.38" width="128.28" height="204.26" transform="translate(3200.59 -1105.57) rotate(90)"/><rect class="m" x="2088.94" y="1094.21" width="128.28" height="204.26" transform="translate(3349.42 -956.74) rotate(90)"/><rect class="m" x="2088.94" y="1243.05" width="128.29" height="204.26" transform="translate(3498.26 -807.9) rotate(90)"/><rect class="m" x="2088.94" y="1391.88" width="128.28" height="204.26" transform="translate(3647.1 -659.07) rotate(90)"/><rect class="m" x="2088.94" y="1540.72" width="128.28" height="204.26" transform="translate(3795.93 -510.23) rotate(90)"/><rect class="j" x="736.56" y="933.48" width="531.38" height="810.34"/><rect class="n" x="730.27" y="1724.49" width="537.67" height="19.33"/><rect class="n" x="1986.37" y="1724.49" width="537.67" height="19.33"/><rect class="k" x="1218.39" y="933.48" width="49.55" height="810.34"/><rect class="l" x="716.16" y="921.77" width="754.85" height="23.42"/><rect class="l" x="828.28" y="675.15" width="642.74" height="23.42"/><rect class="j" x="1267.94" y="642.51" width="722.88" height="168.28"/><rect class="j" x="1267.94" y="947.67" width="722.88" height="796.15"/><rect class="m" x="1429.24" y="896.51" width="399.83" height="636.63" transform="translate(2843.98 -414.33) rotate(90)"/><rect class="m" x="812.25" y="945.38" width="128.28" height="204.26" transform="translate(1923.91 171.11) rotate(90)"/><rect class="m" x="812.25" y="1094.21" width="128.28" height="204.26" transform="translate(2072.74 319.95) rotate(90)"/><rect class="m" x="812.25" y="1243.05" width="128.29" height="204.26" transform="translate(2221.58 468.78) rotate(90)"/><rect class="m" x="812.25" y="1391.88" width="128.28" height="204.26" transform="translate(2370.41 617.62) rotate(90)"/><rect class="m" x="812.25" y="1540.72" width="128.28" height="204.26" transform="translate(2519.25 766.45) rotate(90)"/><rect class="m" x="1038.74" y="945.38" width="128.28" height="204.26" transform="translate(2150.39 -55.37) rotate(90)"/><rect class="m" x="847.01" y="748.24" width="128.28" height="95.96" transform="translate(1707.36 -114.93) rotate(90)"/><rect class="m" x="967.01" y="748.24" width="128.28" height="95.96" transform="translate(1827.37 -234.94) rotate(90)"/><rect class="m" x="1084.56" y="748.24" width="128.28" height="95.96" transform="translate(1944.91 -352.48) rotate(90)"/><rect class="m" x="1038.74" y="1094.21" width="128.28" height="204.26" transform="translate(2299.22 93.47) rotate(90)"/><rect class="m" x="1038.74" y="1243.05" width="128.29" height="204.26" transform="translate(2448.06 242.3) rotate(90)"/><rect class="m" x="1038.74" y="1391.88" width="128.28" height="204.26" transform="translate(2596.89 391.14) rotate(90)"/><rect class="m" x="1038.74" y="1540.72" width="128.28" height="204.26" transform="translate(2745.73 539.97) rotate(90)"/><rect class="i" x="1530.69" y="1544.15" width="207.41" height="201.54"/><rect class="l" x="860.53" y="855.73" width="101.25" height="6.66"/><rect class="l" x="980.53" y="855.73" width="101.25" height="6.66"/><rect class="l" x="1098.08" y="855.73" width="101.25" height="6.66"/><rect class="l" x="2056.36" y="855.73" width="101.25" height="6.66"/><rect class="l" x="2176.37" y="855.73" width="101.25" height="6.66"/><rect class="l" x="2293.91" y="855.73" width="101.25" height="6.66"/><polygon class="o" points="872.15 1700.33 754.83 1700.33 890.59 983.37 1007.92 983.37 872.15 1700.33"/><rect class="j" x="736.56" y="983.37" width="37.7" height="729.46"/><polygon class="o" points="1023 1700.33 957.68 1700.33 1093.45 983.37 1158.77 983.37 1023 1700.33"/><rect class="l" x="998.23" y="1104.99" width="209.31" height="6.66"/><rect class="l" x="771.74" y="1253.83" width="209.31" height="6.66"/><rect class="l" x="998.23" y="1253.83" width="209.31" height="6.66"/><rect class="l" x="771.74" y="1402.66" width="209.31" height="6.66"/><rect class="l" x="998.23" y="1402.66" width="209.31" height="6.66"/><rect class="l" x="771.74" y="1551.5" width="209.31" height="6.66"/><rect class="l" x="998.23" y="1551.5" width="209.31" height="6.66"/><rect class="l" x="1310.84" y="1414.74" width="648.07" height="6.66"/><rect class="l" x="771.74" y="1700.33" width="209.31" height="6.66"/><rect class="l" x="998.23" y="1700.33" width="209.31" height="6.66"/><rect class="l" x="771.74" y="1104.99" width="209.31" height="6.66"/><rect class="j" x="978.53" y="982.54" width="22.22" height="730.29"/><rect class="j" x="766.72" y="1558.16" width="440.81" height="20.55"/><rect class="j" x="766.72" y="1409.32" width="440.81" height="20.55"/><rect class="j" x="766.72" y="1260.49" width="440.81" height="20.55"/><rect class="j" x="766.72" y="1111.65" width="440.81" height="20.55"/><polygon class="o" points="2114.17 1700.33 1996.84 1700.33 2132.6 983.37 2249.93 983.37 2114.17 1700.33"/><polygon class="o" points="2299.74 1700.33 2234.41 1700.33 2370.18 983.37 2435.5 983.37 2299.74 1700.33"/><rect class="j" x="2255.26" y="982.54" width="22.22" height="730.29"/><rect class="j" x="2043.45" y="1558.16" width="440.81" height="20.55"/><rect class="j" x="2043.45" y="1409.32" width="440.81" height="20.55"/><rect class="j" x="2043.45" y="1260.49" width="440.81" height="20.55"/><rect class="j" x="2043.45" y="1111.65" width="440.81" height="20.55"/><polygon class="o" points="908.54 855.73 878.3 855.73 913.51 732.07 943.75 732.07 908.54 855.73"/><polygon class="o" points="1033.39 855.73 1012.23 855.73 1047.43 732.07 1068.6 732.07 1033.39 855.73"/><polygon class="o" points="1123.25 855.73 1106.4 855.73 1141.61 732.07 1158.46 732.07 1123.25 855.73"/><polygon class="o" points="2101.99 855.73 2071.75 855.73 2106.96 732.07 2137.2 732.07 2101.99 855.73"/><polygon class="o" points="2226.84 855.73 2205.67 855.73 2240.88 732.07 2262.05 732.07 2226.84 855.73"/><polygon class="o" points="2316.7 855.73 2299.85 855.73 2335.06 732.07 2351.91 732.07 2316.7 855.73"/><rect class="l" x="2274.54" y="1104.99" width="209.31" height="6.66"/><rect class="l" x="2048.05" y="1253.83" width="209.31" height="6.66"/><rect class="l" x="2274.54" y="1253.83" width="209.31" height="6.66"/><rect class="l" x="2048.05" y="1402.66" width="209.31" height="6.66"/><rect class="l" x="2274.54" y="1402.66" width="209.31" height="6.66"/><rect class="l" x="2048.05" y="1551.5" width="209.31" height="6.66"/><rect class="l" x="2274.54" y="1551.5" width="209.31" height="6.66"/><rect class="l" x="2048.05" y="1700.33" width="209.31" height="6.66"/><rect class="l" x="2274.54" y="1700.33" width="209.31" height="6.66"/><rect class="l" x="2048.05" y="1104.99" width="209.31" height="6.66"/><rect class="k" x="1267.94" y="642.51" width="722.88" height="56.07"/><rect class="l" x="1251.96" y="631.84" width="754.85" height="23.42"/><rect class="l" x="1313.65" y="564.06" width="271.52" height="23.42"/><rect class="l" x="1296.45" y="1486.19" width="665.86" height="57.96"/><rect class="n" x="1633.56" y="1544.15" width="1.66" height="201.54"/><rect class="n" x="1910" y="1544.15" width="37.47" height="199.67"/><rect class="n" x="1310.84" y="1544.15" width="37.47" height="199.67"/><rect class="m" x="1510.28" y="1590.45" width="145.5" height="74.25" transform="translate(3210.61 44.55) rotate(90)"/><rect class="m" x="1612.99" y="1590.45" width="145.5" height="74.25" transform="translate(3313.32 -58.16) rotate(90)"/><polygon class="p" points="1584.95 1700.33 1552.55 1700.33 1578.14 1554.83 1610.55 1554.83 1584.95 1700.33"/><polygon class="p" points="1689.14 1700.33 1656.74 1700.33 1682.34 1554.83 1714.74 1554.83 1689.14 1700.33"/><polygon class="o" points="1440.88 1414.74 1352.2 1414.74 1452.32 1014.9 1541 1014.9 1440.88 1414.74"/><polygon class="o" points="1833.01 1414.74 1664.45 1414.74 1764.57 1014.9 1933.13 1014.9 1833.01 1414.74"/><rect class="j" x="1465.57" y="1010.38" width="5.45" height="424.78"/><rect class="j" x="1788.96" y="1010.38" width="5.45" height="424.78"/><rect class="j" x="1625.07" y="1010.38" width="5.45" height="424.78"/><rect class="j" x="1630.93" y="892.03" width="5.83" height="661.46" transform="translate(2856.61 -411.08) rotate(90)"/><rect class="j" x="1996.92" y="1367.25" width="53.92" height="351.25"/><path class="b" d="M1743.26,1221.66a112.82,112.82,0,1,1-112.81-112.82A112.82,112.82,0,0,1,1743.26,1221.66Z"/><circle class="i" cx="1630.45" cy="1221.66" r="102.28" transform="translate(-265.94 1966.34) rotate(-58.28)"/><polygon class="b" points="1641.44 1153.41 1620.86 1153.2 1620.26 1211.39 1562.06 1211.53 1562.11 1232.11 1620.05 1231.98 1619.45 1289.91 1640.03 1290.12 1640.63 1231.93 1698.83 1231.79 1698.78 1211.21 1640.84 1211.35 1641.44 1153.41"/><rect class="i" x="1578.68" y="593.7" width="412.14" height="6.48"/><path class="q" d="M694.47,1591.91c-10-26-19.75-52-26.84-79.09-21.82-83.27-16.55-144-15.74-173.15.11-3.85-6.06-4.91-6.6-.93-1.86,13.69-2.27,27.61-2.36,41.43a522.52,522.52,0,0,0,4.25,70c-16,4.18-31.15-2.08-43.54-13.32-21.36-19.37-29-45.19-32.34-73.8-.34-2.92-.45-5.69-2.82-7.38a1.66,1.66,0,0,0-3.26.28c-3.38,3.49-1.74,10.49-1.22,15,7,60.92,44,90.45,73.75,90.19a42.48,42.48,0,0,0,10.77-1.17q3.22,21.85,8.28,43.36c6.43,27.28,15.44,53.61,25.37,79.7,33.92,89.19,44.75,134.76,54.39,160.58,1.45,5.18,9.11,3,7.77-2.24C743.86,1739.54,717.39,1651.66,694.47,1591.91Z"/><path class="q" d="M830.41,1357.42c-.32-1.92-1.44-3.19-1.87-5-.56-2.37-4.42-2.61-4.83,0-.23,1.49-1.05,2.41-1.37,3.94-1,4.93,1.46,32.68-5.07,75.15-1.73,11.29-3.65,22.52-7.4,33.29-6.06,17.42-17.11,36.19-30.85,48.06a729.2,729.2,0,0,0-4.9-74.44q-2.67-22.2-6.76-44.15-2-10.68-4.31-21.3c-1.63-7.43-3.16-14.56-6.7-21.29-1.09-2.06-4.19-1.1-4.2,1.19,0,6.59,1.31,12.67,2.68,19.08s2.64,12.77,3.83,19.19c8.83,47.56,12.15,89.8,12.12,137.42-14.56-18.35-27.28-40.33-36.71-61.91a285.87,285.87,0,0,1-22.15-82.2q-1.33-11.89-1.6-23.87-.14-6.19-.25-12.39c0-2.13-.86-8.54-4.43-6.66-3.29,1.73-3,5.58-3.25,9-.3,3.67-.33,7.33-.28,11q.14,10.59,1.12,21.13c4.72,50.88,23.88,101.17,53,142.38,4.44,6.28,9,13,14.41,18.5-1.24,81.44-13.31,184.31-13.52,192.53a32.51,32.51,0,0,0,.63,5.46c.55,3.7,5.4,2.84,6.39,0,1.87-5.36,1.68-7.45,4.47-37.16,5-53,10.55-174.34,10.53-179.26,17.3-12.46,29.54-31.61,37.54-51.62,4.25-10.62,6.74-21.54,8.61-32.85C831.66,1402.15,831.46,1363.71,830.41,1357.42Z"/><path class="l" d="M711.52,1291a160.89,160.89,0,0,0,1-18c0-68.1-42.23-123.31-94.32-123.31s-94.31,55.21-94.31,123.31a163.33,163.33,0,0,0,1,18Z"/><path class="g" d="M818.26,1260.65c.66-8.27,1-16.74,1-25.35,0-96-42.23-173.9-94.32-173.9s-94.31,77.86-94.31,173.9c0,8.61.34,17.08,1,25.35Z"/><path class="l" d="M632.78,1367.21c-.83-8.27-1.26-16.74-1.26-25.35,0-96,53.53-173.9,119.56-173.9s119.57,77.86,119.57,173.9c0,8.61-.43,17.08-1.26,25.35Z"/><path class="g" d="M724.59,1168c-33,0-62.49,24.7-82,63.44a92.4,92.4,0,0,0-31.35-5.47c-58.59,0-106.09,55.21-106.09,123.31a143.54,143.54,0,0,0,1.12,18H829.56c.74-8.27,1.12-16.74,1.12-25.35C830.68,1245.82,783.18,1168,724.59,1168Z"/><path class="q" d="M2716.09,1364.08c-.36-2.39-3.92-4.25-5.44-2.13s-1.62.69-2.81,5.26a128.59,128.59,0,0,1-16.37,37c-13.72,21.28-28.52,32-45.5,42.64,5.57-16.69,8.52-34.52,7.07-52.5-.53-6.55-1.45-13.35-5-19.36-1-1.68-4-1.34-4.08.54-.45,9.27,2.61,16.27,1.5,32.88-2.64,39.62-26.47,81.65-50.76,111.08-.48-49.83-4.49-106.45-19.84-156.7-2.52-8.25-5.91-16.09-9.15-24.14a1.48,1.48,0,1,0-2.84.8c.79,2.68,9.34,37.26,9.89,39.65,8.85,38.27,12.9,80.67,14,119.33a272.29,272.29,0,0,1-53.94-97.46c-3.19-10.37-5-21.08-8.94-31.27-.55-1.4-2.92-1.55-3,0-1.09,15.26,7.79,42.25,13.67,56.91a270.3,270.3,0,0,0,49.86,80.16c.83.92-2.58,233.46-1.42,236.41,2,5,11.13,8.45,11.46-.36.14-3.59.43-145,.36-210.48,2.67-1.55,4.19-4.32,10.58-12.46,14.8-18.87,28.87-42.33,37.52-64.47,6.7-.37,52.64-23.76,70.59-77,.51-1.53,2.81-8.74,3.07-10.35A12.5,12.5,0,0,0,2716.09,1364.08Z"/><path class="l" d="M2556.71,1288.07q.83-10.87.84-22.2c0-84.11-35.7-152.3-79.73-152.3s-79.74,68.19-79.74,152.3q0,11.31.84,22.2Z"/><path class="g" d="M2647,1250.64c.55-10.22.84-20.68.84-31.31,0-118.62-35.7-214.78-79.74-214.78s-79.73,96.16-79.73,214.78c0,10.63.29,21.09.84,31.31Z"/><path class="g" d="M2617.75,1382.25q-.83-10.87-.84-22.2c0-84.11,35.7-152.3,79.73-152.3s79.74,68.19,79.74,152.3q0,11.31-.84,22.2Z"/><path class="l" d="M2490.14,1382.25c-.7-10.22-1.07-20.68-1.07-31.31,0-118.62,45.26-214.78,101.08-214.78s101.08,96.16,101.08,214.78c0,10.63-.36,21.09-1.06,31.31Z"/><path class="g" d="M2567.75,1136.16c-27.9,0-52.82,30.51-69.27,78.35a56.73,56.73,0,0,0-26.51-6.76c-49.53,0-89.69,68.19-89.69,152.3,0,7.54.33,15,.95,22.2H2656.5c.62-10.22.94-20.68.94-31.31C2657.44,1232.32,2617.29,1136.16,2567.75,1136.16Z"/><rect class="l" x="368.97" y="1739.46" width="2502.33" height="8.71"/><rect class="k" x="1990.97" y="945.09" width="49.55" height="794.46" transform="translate(4031.5 2684.64) rotate(180)"/><rect class="i" x="1238.78" y="810.83" width="781.21" height="168.28"/><rect class="r" x="1238.78" y="907.99" width="781.21" height="71.12"/><path class="j" d="M1342.74,942.9V852.55h17.7v35.8h35.91v-35.8h17.7V942.9h-17.7V903.64h-35.91V942.9Z"/><path class="j" d="M1429.34,897.94q0-21.9,10.37-34.19t28.7-12.29q18.33,0,28.73,12.29t10.4,34.19q0,21.78-10.43,34.13t-28.7,12.35q-18.21,0-28.64-12.35T1429.34,897.94Zm18,0q0,15.34,5.37,23.27t15.74,7.92q10.36,0,15.74-7.92t5.37-23.27q0-15.48-5.37-23.48t-15.74-8q-10.37,0-15.74,8T1447.3,897.94Z"/><path class="j" d="M1515.82,922.51l16-6.85q3.74,7.22,8.32,10.53a18,18,0,0,0,10.84,3.3q7.08,0,11.19-3.09a10,10,0,0,0,4.1-8.38,9.17,9.17,0,0,0-3-7q-3-2.84-10.94-5.62c-.71-.28-1.75-.64-3.09-1.09q-13.85-4.86-19.28-8.25a22.82,22.82,0,0,1-8.22-8.38,23.18,23.18,0,0,1-2.85-11.52,21.7,21.7,0,0,1,8.51-17.75q8.49-6.82,22.22-6.83,12,0,20,5a28.83,28.83,0,0,1,11.73,14.74L1565.31,877q-3-6.08-7-8.83a17.33,17.33,0,0,0-10-2.76q-5.76,0-9.07,2.57a8.42,8.42,0,0,0-3.32,7q0,6.85,16.24,13c3.33,1.25,5.95,2.26,7.84,3q13.59,5.52,18.49,11.29t4.9,15q0,12.5-8.53,19.66t-23.45,7.16q-13,0-22-5.47A33.92,33.92,0,0,1,1515.82,922.51Z"/><path class="j" d="M1598.69,942.9V852.55h33.63q16.62,0,24.78,6.65t8.15,20.17q0,13.23-8,20.12T1634,906.37h-17.44V942.9Zm17.89-50.85h13.14q9.73,0,13.75-2.91t4-9.77q0-6.92-4-9.83t-13.75-2.91h-13.14Z"/><path class="j" d="M1682.57,942.9V852.55h17.83V942.9Z"/><path class="j" d="M1740,942.9V867.48h-24.72V852.55h67.32v14.93h-24.71V942.9Z"/><path class="j" d="M1777.45,942.9l28.38-90.35H1828l28.32,90.35h-17.7l-5.82-19.78h-32.49l-6,19.78Zm27.06-34.16h24l-12-40.41Z"/><path class="j" d="M1867.21,942.9V852.55h18v74.94h39.69V942.9Z"/><rect class="s" x="1313.73" y="717.69" width="46.93" height="17.98"/><rect class="s" x="1276.72" y="745.1" width="46.93" height="17.98"/><rect class="s" x="1305.98" y="774.85" width="48.03" height="15.22"/><rect class="s" x="1337.22" y="746.62" width="46.66" height="15.22"/><rect class="s" x="1631.94" y="776.38" width="37.95" height="13.59"/><rect class="s" x="1657.06" y="754.21" width="37.94" height="13.59"/><rect class="s" x="1436.93" y="1591.89" width="37.95" height="13.59"/><rect class="s" x="1462.05" y="1569.73" width="37.94" height="13.59"/><rect class="s" x="1841.36" y="1585.24" width="37.94" height="13.59"/><rect class="s" x="1860.2" y="1609.99" width="37.95" height="13.59"/><rect class="s" x="1836.73" y="723.96" width="46.93" height="17.98" transform="translate(3720.4 1465.91) rotate(180)"/><rect class="s" x="1975.49" y="771.98" width="15.28" height="17.98" transform="translate(3966.27 1561.94) rotate(180)"/><rect class="s" x="1958.5" y="743.17" width="32.64" height="17.98" transform="translate(3949.65 1504.33) rotate(180)"/><rect class="s" x="1860" y="747.6" width="46.93" height="17.98" transform="translate(3766.93 1513.19) rotate(180)"/><rect class="s" x="1512.15" y="753.59" width="46.93" height="17.98" transform="translate(3071.24 1525.16) rotate(180)"/><rect class="s" x="1484.08" y="726.63" width="46.93" height="17.98" transform="translate(3015.1 1471.24) rotate(180)"/><rect class="s" x="1843.38" y="774.85" width="48.03" height="15.22" transform="translate(3734.79 1564.93) rotate(180)"/><rect class="s" x="1764.34" y="1648.81" width="46.93" height="17.98" transform="translate(3575.61 3315.6) rotate(180)"/><rect class="s" x="1787.61" y="1672.45" width="46.93" height="17.98" transform="translate(3622.15 3362.88) rotate(180)"/><rect class="s" x="1770.99" y="1699.7" width="48.03" height="15.22" transform="translate(3590 3414.61) rotate(180)"/><rect class="s" x="1408.66" y="1652.5" width="46.93" height="17.98"/><rect class="s" x="1385.39" y="1676.14" width="46.93" height="17.98"/><rect class="s" x="1400.91" y="1703.39" width="48.03" height="15.22"/><rect class="s" x="1804.65" y="750.69" width="46.65" height="15.22" transform="translate(3655.96 1516.59) rotate(180)"/><rect class="t" x="2076.23" y="1679.59" width="3.06" height="45.6"/><rect class="t" x="2227.23" y="1679.59" width="3.06" height="45.6"/><rect class="u" x="2065.71" y="1673.29" width="175.09" height="9.07" rx="2.32"/><rect class="u" x="2065.71" y="1686.17" width="175.09" height="9.07" rx="2.32"/><rect class="u" x="2065.71" y="1699.04" width="175.09" height="9.07" rx="2.32"/><path class="u" d="M2070.56,1721.69H2236a5.7,5.7,0,0,1,5.7,5.7v1.3a0,0,0,0,1,0,0h-176.8a0,0,0,0,1,0,0v-1.3A5.7,5.7,0,0,1,2070.56,1721.69Z"/><rect class="t" x="2062.95" y="1727.77" width="180.26" height="3.17" rx="1.29"/><path class="v" d="M2177.83,1699.34c2.41-1.32,22.59-12.38,23.33-13.12s10.05-15.7,10.05-15.7l-8.21-1.92-8.15,14.09c-.68.53-13.52,9.83-13.52,9.83s-2.31,1.77-3.73,2.73c-.43,0-.84,0-1.18,0a10.36,10.36,0,0,1-2-.3,11.34,11.34,0,0,0-2.52-.29l-1.74.32c-.5.09-1.09.19-1.35.27a2.31,2.31,0,0,1-.79,0,.44.44,0,0,0-.38.72,2,2,0,0,0,1.11.4c.93.12,2.39-.22,2.36-.08s-2.16,1.51-2.39,1.68a30.35,30.35,0,0,0-3.09,2.25c-.37.47-.15.78.2.74s3.88-2,3.88-2,.46-.25.4,0-3.31,2.06-3.75,2.42-.55.8,0,.91,4-2,4-2,.42-.26.46-.05-2.75,1.69-2.93,2-.12.67.38.68,3.55-1.92,3.55-1.92.27-.08.24.07-2.32,1.59-2.44,1.94a.27.27,0,0,0,.15.38c.51.33,2.54-1.37,3.71-1.86S2177.76,1699.38,2177.83,1699.34Z"/><path class="f" d="M2202.26,1662.68s-1.87.63-4.33,6.64c-2.3,5.61-4.16,11.8-4.16,11.8L2200,1686s2.27-12.76,2.55-13.2S2202.26,1662.68,2202.26,1662.68Z"/><path class="w" d="M2191.26,1761.77l.3,4.91a26.82,26.82,0,0,1,.54,2.73c0,2.12-10.09-1.81-7.83-2.75.21-.08,1.28-.73,1.35-1.45.1-1.11.36-3.37.36-3.37Z"/><path class="x" d="M2184.3,1766.64s2.37.65,3.58.82,2.81-1.21,3.67-.84.91,4.07.91,4.07-12.7,1-16.27,0C2174.77,1770.22,2179.46,1768.16,2184.3,1766.64Z"/><path class="w" d="M2174.14,1761.77l.3,4.91a26.82,26.82,0,0,1,.54,2.73c0,2.12-10.09-1.81-7.83-2.75.21-.08,1.73-.35,1.8-1.08.1-1.11.3-4.55.3-4.55Z"/><path class="x" d="M2167.18,1766.64s2.36.65,3.58.82,2.81-1.21,3.67-.84.9,4.07.9,4.07-12.7,1-16.27,0C2157.65,1770.22,2162.33,1768.16,2167.18,1766.64Z"/><path class="y" d="M2206.9,1710.39l-24.11.11s-10.89-.29-12.61,3.48-1.84,48.41-1.84,48.41,5.7.32,6,0l7.18-24.91a20.08,20.08,0,0,0,.7-7.48l-.62-6.66,10,.51s11.27-.18,15-3.92S2206.9,1710.39,2206.9,1710.39Z"/><path class="z" d="M2223.24,1707.73l-25.92,1.59s-11.16.91-12.88,4.68.58,48.39.58,48.39,6.55.29,6.54,0,3.09-18.37,4.58-25.26a24.43,24.43,0,0,0,.49-6.66l-.38-5.84s26.61-.52,27.81-1.73C2227.78,1719.16,2223.24,1707.73,2223.24,1707.73Z"/><path class="x" d="M2202.26,1662.68a67.35,67.35,0,0,1,10.45-1s4.28-.4,5.63,0c2,.57,5.78,1,5.54,9.82-.17,6.3-.11,27.09-.1,37.63l-25.92.14C2200.32,1688.09,2198.78,1663.48,2202.26,1662.68Z"/><path class="w" d="M2209.7,1654l3.54,7.71s-3.41,5.22-6.3,5.18c-2.42,0-1.81-3.59-1.81-3.59s-.07-4.65-1.09-6.8S2209.7,1654,2209.7,1654Z"/><path class="n" d="M2209.13,1656.93a15.47,15.47,0,0,1-4.27,2.78,12.16,12.16,0,0,0-.82-3.24c-.47-1,.7-1.6,2.09-2,1.86-.37,3.57-.54,3.57-.54l.68,1.48A6.79,6.79,0,0,1,2209.13,1656.93Z"/><path class="w" d="M2208.46,1641.31c.17-.11,3.54,9.45,1.58,12.68s-6.67,5.13-8.87,3.36c-2.43-1.95-4.53-12.54-1.19-16.14S2208.46,1641.31,2208.46,1641.31Z"/><path class="aa" d="M2200.38,1635.64a11.06,11.06,0,0,1,6.37,2.07c1.41-.12,3.43.25,6,3a8.15,8.15,0,0,1,0,10.84,6.34,6.34,0,0,0-1.77,5.16l-.7-1.18a7.31,7.31,0,0,1-1-2.93,6,6,0,0,1,.07-1.9c.37-1.56-1.91-2.07-2.74-3.14-.64-.82-1.1-2.9-2.12-4.26l-1.09-1s-2.27-1.12-4.1-.29S2196.33,1635.65,2200.38,1635.64Z"/><path class="w" d="M2207.17,1649.33c.23,1.2,1,2.07,1.67,1.94s1.08-1.22.85-2.42-1-2.07-1.68-1.94S2206.94,1648.12,2207.17,1649.33Z"/><path class="b" d="M2203.66,1653l-3.83.59a1.69,1.69,0,0,0,2,1.23C2203.9,1654.51,2203.66,1653,2203.66,1653Z"/><path class="v" d="M2207.6,1696.66a16.28,16.28,0,0,0-3-1.82,3.94,3.94,0,0,0-1.72-.24s-1.3.12-1.35.43a.66.66,0,0,0,.45.7c.24.07.75,0,1,0a1.93,1.93,0,0,1,.69,1.07c.05.29-3.77.51-3.77.51s-1.1,0-1.47,0-1.24-.16-1.24-.16-1.33-.12-1.34.3c0,.25,1.15.69,2.32.94a23.73,23.73,0,0,1,2.58.44c0,.31-2.07.48-2.07.48a6.57,6.57,0,0,0-1.45-.07c-.6-.19-1.66-.22-1.63.3a9.16,9.16,0,0,0,1.42.54s1,.12,1.42.2a22.52,22.52,0,0,0,2.54,0c.45.05.3.18.33.23a13.05,13.05,0,0,1-1.43.12,7.42,7.42,0,0,1-1.38.11,10.23,10.23,0,0,0-1.48,0c-1.08.09-.82.77.2.85l1.25.09c1.67.12,3.21-.14,3.26,0s-2.77.52-2.77.52-1.47.61,0,.73a12.12,12.12,0,0,0,3.17-.14,11.58,11.58,0,0,0,3.25-.61c1-.43,2.37-1.08,3-1.4Z"/><path class="v" d="M2227.67,1676.28l-6.68,3.14s2.18,5.84,2.3,6.56c0,0-11,8-15.69,10.68l.75,4.29c.93-.49,1.66-1,2.12-1.2.91-.44,15.46-7.23,15.46-7.23s5.69-3,5.72-4.14S2227.67,1676.28,2227.67,1676.28Z"/><path class="f" d="M2230.26,1680s-5.27-13-7.59-16.24a5.19,5.19,0,0,0-8.5-.37c-2.21,2.72,7.66,19.69,7.66,19.69Z"/><path class="w" d="M2124.94,1762l-.26,4.8c-.1.61-.48,2.11-.48,2.66,0,2.08,9-1.76,7-2.68-.18-.08-1.13-.71-1.19-1.42-.09-1.09-.33-3.29-.33-3.29Z"/><path class="z" d="M2131.13,1766.74a31.07,31.07,0,0,1-3.18.8c-1.08.15-2.5-1.18-3.26-.82s-.81,4-.81,4,11.28,1,14.45,0C2139.59,1770.24,2135.43,1768.22,2131.13,1766.74Z"/><path class="w" d="M2140.15,1762s-.26,4.79-.27,4.8c-.09.61-.47,2.11-.47,2.66,0,2.08,9-1.76,7-2.68-.18-.08-1.54-.35-1.6-1-.09-1.09-.26-4.46-.26-4.46Z"/><path class="z" d="M2146.34,1766.74a31.82,31.82,0,0,1-3.18.8c-1.08.15-2.5-1.18-3.26-.82s-.81,4-.81,4,11.28,1,14.45,0C2154.8,1770.24,2150.64,1768.22,2146.34,1766.74Z"/><path class="aa" d="M2111.29,1710.59l21.42.1s9.67-.28,11.2,3.4,1.16,50.46,1.16,50.46-5.16.85-5.42.54l-5.82-28a21.65,21.65,0,0,1-.62-7.31l.55-6.52-9.24-.8s-9.61,1.12-12.91-2.53S2111.29,1710.59,2111.29,1710.59Z"/><path class="f" d="M2096.77,1708l23,1.55s9.91.89,11.44,4.57-1,50.86-1,50.86-5.75.39-5.73.12-2.36-21.61-3.68-28.35a25.88,25.88,0,0,1-.43-6.52l.83-7.55s-21.39-.13-22.45-1.31C2095.49,1717.7,2096.77,1708,2096.77,1708Z"/><path class="ab" d="M2148.63,1685.44c.21-.6-2.75-1.08-2.91-1.69s3.73-.67,3.86-1.21c.26-1-4.25-.19-4.16-.65s4.69-1.51,4.19-2.3-4.66,1.58-4.79,1,4.07-1.86,4-3c0-.63-6.89,3.17-7.69,2.83s.85-3.31.21-3.74-2.43,6-2.86,6.24-9.69,5.51-13,6.35c-.41-1.09-3.31-6.9-3.66-7.94-1.85,1.31-4,1.61-5.9,2.81,1.4,3.44,6.18,11.91,7.15,12.34,2.94,1.31,14.25-8.09,16.51-9.7s3.56-1.1,5.09-1.61S2148.42,1686,2148.63,1685.44Z"/><path class="aa" d="M2119.22,1657.38a19.73,19.73,0,0,0-1.83-9.58c-1.27-2.62-4.41-4.12-7.28-4.12-9.1,0-10.26,12-16.06,16.56-1.77,1.41-3.75,2.56-5.42,4.08-6.19,5.61-3.4,16,2.28,20.92,3.94,3.41,10.14,5.35,15,2.68a15.19,15.19,0,0,0,5.83-6.24c2-3.6,3.2-7.76,4.59-11.6A43.09,43.09,0,0,0,2119.22,1657.38Z"/><path class="z" d="M2116.5,1688.24s-6.8-6.94-8.55-10,1.19-1,4.19-1.84c1.14-.3.85-6.93,3-4.77a98.23,98.23,0,0,1,8,9.71Z"/><path class="n" d="M2106.83,1668.64s-6.1-1.2-8.89,1.11.6,22.88.6,26.29-1.92,13-1.92,13,7.89-.06,22.16.39c0,0,.11-21.79,0-24.24s-2.87-12.48-3.63-13.55S2106.83,1668.64,2106.83,1668.64Z"/><path class="w" d="M2106.79,1659.25s0,.18-.09.49c-.28,1.48-1.34,6.39-2.06,7.75-.87,1.63,3,6.83,6.68,6.2,1.1-.19-.93-4.79-.83-5.27.18-.93.44-2.2.7-3.51.15-.73.29-1.48.43-2.18.4-2,.72-3.61.72-3.61Z"/><path class="n" d="M2106.7,1659.74c.06-.31.09-.49.09-.49l5.55-.13s-.32,1.62-.72,3.61c-.14.7-.28,1.44-.43,2.17a5.17,5.17,0,0,1-2.65-1.32,7,7,0,0,1-2-3C2106.6,1660.27,2106.66,1660,2106.7,1659.74Z"/><path class="w" d="M2110.53,1646.74a5,5,0,0,0-4.26,1.8c-1.64,2.1-3.41,8.61.67,12.15s8.1-.47,8.69-4.71S2116.46,1646.58,2110.53,1646.74Z"/><path class="w" d="M2116.84,1655.91c-.49.94-1.3,1.46-1.82,1.16s-.55-1.29-.07-2.23,1.31-1.46,1.83-1.16S2117.33,1655,2116.84,1655.91Z"/><path class="aa" d="M2110.82,1646s-3.5,6.19-6,6.47-2.82,3.58-2.82,3.58.89-7.58,3.37-9A9.25,9.25,0,0,1,2110.82,1646Z"/><path class="w" d="M2105.48,1654.07c.2,1.1-.21,2.11-.91,2.25s-1.45-.63-1.65-1.73.2-2.11.91-2.25S2105.28,1653,2105.48,1654.07Z"/><path class="b" d="M2112.1,1658.35l-3.84-.2a1.68,1.68,0,0,0,1.7,1.59C2112,1659.91,2112.1,1658.35,2112.1,1658.35Z"/><path class="b" d="M2112.1,1658.35l-3.84-.2a1.68,1.68,0,0,0,1.7,1.59C2112,1659.91,2112.1,1658.35,2112.1,1658.35Z"/><path class="w" d="M2133.82,1688.37c.21-.6-2.74-1.08-2.9-1.69s3.72-.67,3.86-1.21c.25-1-4.26-.19-4.17-.65s4.7-1.51,4.19-2.3-4.66,1.58-4.79,1,4.07-1.86,4-3c0-.63-6.88,3.16-7.68,2.82s.84-3.31.21-3.74-2.43,6-2.87,6.24-9.68,5.51-13,6.35c-.4-1.09-3.3-6.9-3.66-7.94-1.84,1.32-4,1.61-5.89,2.81,1.39,3.44,6.18,11.91,7.14,12.34,2.94,1.3,14.26-8.09,16.52-9.7s3.56-1.1,5.09-1.61S2133.61,1689,2133.82,1688.37Z"/><path class="z" d="M2100.24,1688s-4-8.82-4.61-12.25,2.35-7.72,5.44-7.44,7.74,15.51,7.74,15.51Z"/><rect class="t" x="2070.21" y="1730.94" width="3.41" height="44.98"/><rect class="t" x="2234.35" y="1730.94" width="3.41" height="44.98"/><rect class="t" x="2305.43" y="1679.59" width="3.06" height="45.6"/><rect class="t" x="2456.43" y="1679.59" width="3.06" height="45.6"/><rect class="u" x="2294.92" y="1673.29" width="175.09" height="9.07" rx="2.32"/><rect class="u" x="2294.92" y="1686.17" width="175.09" height="9.07" rx="2.32"/><rect class="u" x="2294.92" y="1699.04" width="175.09" height="9.07" rx="2.32"/><path class="u" d="M2299.76,1721.69h165.41a5.7,5.7,0,0,1,5.7,5.7v1.3a0,0,0,0,1,0,0h-176.8a0,0,0,0,1,0,0v-1.3A5.7,5.7,0,0,1,2299.76,1721.69Z"/><rect class="t" x="2292.15" y="1727.77" width="180.26" height="3.17" rx="1.29"/><rect class="t" x="2299.42" y="1730.94" width="3.41" height="44.98"/><rect class="t" x="2463.55" y="1730.94" width="3.41" height="44.98"/><rect class="t" x="1033.25" y="1679.59" width="3.06" height="45.6"/><rect class="t" x="1184.25" y="1679.59" width="3.06" height="45.6"/><rect class="u" x="1022.73" y="1673.29" width="175.09" height="9.07" rx="2.32"/><rect class="u" x="1022.73" y="1686.17" width="175.09" height="9.07" rx="2.32"/><rect class="u" x="1022.73" y="1699.04" width="175.09" height="9.07" rx="2.32"/><path class="u" d="M1027.57,1721.69H1193a5.7,5.7,0,0,1,5.7,5.7v1.3a0,0,0,0,1,0,0h-176.8a0,0,0,0,1,0,0v-1.3A5.7,5.7,0,0,1,1027.57,1721.69Z"/><rect class="t" x="1019.97" y="1727.77" width="180.26" height="3.17" rx="1.29"/><rect class="t" x="1027.23" y="1730.94" width="3.41" height="44.98"/><rect class="t" x="1191.37" y="1730.94" width="3.41" height="44.98"/><rect class="t" x="790.7" y="1679.59" width="3.06" height="45.6"/><rect class="t" x="941.7" y="1679.59" width="3.06" height="45.6"/><rect class="u" x="780.18" y="1673.29" width="175.1" height="9.07" rx="2.32"/><rect class="u" x="780.18" y="1686.17" width="175.1" height="9.07" rx="2.32"/><rect class="u" x="780.18" y="1699.04" width="175.1" height="9.07" rx="2.32"/><path class="u" d="M785,1721.69H950.43a5.7,5.7,0,0,1,5.7,5.7v1.3a0,0,0,0,1,0,0H779.33a0,0,0,0,1,0,0v-1.3A5.7,5.7,0,0,1,785,1721.69Z"/><rect class="t" x="777.42" y="1727.77" width="180.26" height="3.17" rx="1.29"/><rect class="t" x="784.68" y="1730.94" width="3.41" height="44.98"/><rect class="t" x="948.82" y="1730.94" width="3.41" height="44.98"/><path class="w" d="M1075.26,1761.44s-.31,5.14-.32,5.15c-.11.65-.56,2.27-.56,2.86,0,2.23,10.59-1.89,8.22-2.88-.22-.09-1.34-.77-1.41-1.53-.11-1.17-.39-3.53-.39-3.53Z"/><path class="z" d="M1082.57,1766.55s-2.48.68-3.76.85-3-1.27-3.85-.88-1,4.27-1,4.27,13.34,1.1,17.09,0C1092.58,1770.31,1087.66,1768.14,1082.57,1766.55Z"/><path class="w" d="M1093.24,1761.44s-.31,5.14-.32,5.15c-.11.65-.56,2.27-.56,2.86,0,2.23,10.59-1.89,8.22-2.88-.22-.09-1.82-.37-1.89-1.13-.11-1.17-.31-4.79-.31-4.79Z"/><path class="z" d="M1100.55,1766.55s-2.48.68-3.76.85-3-1.27-3.85-.88-1,4.27-1,4.27,13.33,1.1,17.08,0C1110.56,1770.31,1105.64,1768.14,1100.55,1766.55Z"/><path class="aa" d="M1059.12,1706.25l25.32.11s11.43-.3,13.24,3.66,1.38,54.18,1.38,54.18-6.11.91-6.42.57l-6.87-30.07a21,21,0,0,1-.74-7.85l.66-7-10.45.53s-11.84-.18-15.75-4.11S1059.12,1706.25,1059.12,1706.25Z"/><path class="f" d="M1042,1703.46l27.23,1.67s11.71.95,13.52,4.91-1.15,54.61-1.15,54.61-6.8.42-6.78.12-2.79-23.2-4.35-30.44a25.27,25.27,0,0,1-.51-7l1-5.69s-24.56,1.3-25.81,0C1041.17,1717.76,1042,1703.46,1042,1703.46Z"/><polygon class="ac" points="1072.39 1675.11 1065.1 1675.47 1065.1 1682.48 1072.56 1681.98 1072.39 1675.11"/><path class="g" d="M1065.92,1678.56s-6.33-4.63-8.25-7.94,1.3-1.16,4.59-2c1.25-.33.93-7.63,3.28-5.26,3.87,3.89,7,11.62,7,11.62Z"/><path class="ad" d="M1056.54,1660s-7-1.72-10.48,2c-2.7,2.91-4.67,47.15-4.67,47.15s23.48-1,26.72-6.62c0,0,1.55-21.5,1.42-24.2s-3.08-13.75-3.91-14.93S1056.54,1660,1056.54,1660Z"/><path class="w" d="M1056.4,1650.36s0,.2-.09.54c-.31,1.63-1.47,7-2.26,8.52-1,1.8,3.26,7.53,7.31,6.83,1.21-.21-1-5.27-.91-5.8.2-1,.48-2.43.77-3.86l.47-2.4c.44-2.19.79-4,.79-4Z"/><path class="n" d="M1056.26,1651.17c.06-.34.1-.54.1-.54l6.07-.15s-.35,1.79-.79,4l-.47,2.39a5.76,5.76,0,0,1-2.9-1.45,7.75,7.75,0,0,1-2.2-3.26C1056.15,1651.75,1056.21,1651.42,1056.26,1651.17Z"/><path class="w" d="M1098.28,1677.22a3.7,3.7,0,0,1,.33-2.2c.36-.88.31-2.6.82-2.28s0,1.88.39,1.74,1.78-3.33,2.24-3-1,3.21-.62,3.08,1.43-2.93,2.09-2.53-1.54,3.19-1.19,3.41,1.69-1.58,2.21-1.25-1.94,2.36-1.71,2.29,1.82-.67,1.93-.36-3.19,1.81-3.49,2.62-5.39,9-7.07,9.22-9.8-4.12-10.52-5.73-.24-3.44.84-3.79,8.67,4,9,3.86S1098.28,1677.22,1098.28,1677.22Z"/><path class="ab" d="M1099.75,1674.24a2.07,2.07,0,0,1,.41.72,2,2,0,0,1-.2,1.74A3.44,3.44,0,0,0,1099.75,1674.24Z"/><path class="w" d="M1073.67,1717.05a10.31,10.31,0,0,0,2.86,1.19,69.18,69.18,0,0,1-2.53,8.59s-.85-.41-.92-1.14-.39-4.09-1.53-5.09c-.3-.26-3.59-3.19-6.25-5.93.93-1.05,3.85-1.28,4.63-2.43A40.81,40.81,0,0,1,1073.67,1717.05Z"/><path class="ad" d="M1074.7,1717.63s-1.43,5-1.82,5.62.3,5.34,1,5.19,4.36-8.64,4.15-9.54S1074.7,1717.63,1074.7,1717.63Z"/><path class="w" d="M1068.89,1725.59a10.16,10.16,0,0,0,1.94,2.38,68.67,68.67,0,0,1-6.75,5.93,1.54,1.54,0,0,1-.22-1.41c.32-.64,2-4.63,1.45-6a32.33,32.33,0,0,0-2-4.56,36.64,36.64,0,0,0,4-1.66C1068,1722.16,1068.79,1725.31,1068.89,1725.59Z"/><path class="z" d="M1069.46,1696.83s-9.44,9.33-10.41,11.13c-.71,1.34,3.64,15.16,3.64,15.16s4.1-.31,5.81-2c0,0-2.16-9.64-1.71-10.08s11.24-6.69,11.24-6.69l-1.34-5.72Z"/><path class="n" d="M1079.69,1690.8s-3.75,5-5.69,6.08c-1.49.84-13.77,7-13.13,10.75.36,2.15,6.09,10,6.09,10l5-3.83s-2.87-3.66-2.73-4.2,11.14-2.1,13.8-4.59,1-9.72,1-9.72Z"/><path class="ae" d="M1076.78,1675.87a29.55,29.55,0,0,1-4.28-.76c-1.13-.41-8.55,24.09-6,24.64,5.42,1.17,17.63,3.76,17.63,3.76a17.83,17.83,0,0,0,.9-9.74,42.41,42.41,0,0,1-1.28-8.77l4.82,2.19,2.15-7.78a91.93,91.93,0,0,0-8.86-3.11C1081.27,1676.17,1076.78,1675.87,1076.78,1675.87Z"/><path class="ad" d="M1069.45,1726.49s-4.09,3.73-4.83,4.09-2,4.72-1.23,5,8.36-5.23,8.67-6.15S1069.45,1726.49,1069.45,1726.49Z"/><path class="u" d="M1076.69,1659.49a3.5,3.5,0,0,0-4.09,1.62c-1.61,2.52-.74,2.28-1.52,3.54s-2.82,1-2.82,2.95.91,2.26.91,2.26a3.33,3.33,0,0,0,.09,3.08,5.79,5.79,0,0,0,5.08,2.69,8.8,8.8,0,0,0,5.72.83c2.87-.74,1.87-.74,3-.74s4.34-1.61,3.82-4c0,0,1.93-2.3.06-4.17s-2.23-3.78-3.31-6.29S1078,1658.89,1076.69,1659.49Z"/><path class="w" d="M1075,1672.9s.1,3.45-.22,3.78a1.25,1.25,0,0,0-.3,1.69c.48.82,2.55.29,3.51-.18a4.55,4.55,0,0,0,1.53-1.29l-.48-5.48Z"/><path class="n" d="M1076.41,1674.33a4.81,4.81,0,0,0,2.72-2.14l-.06-.77-4,1.48s0,.84,0,1.73A4.6,4.6,0,0,0,1076.41,1674.33Z"/><path class="w" d="M1079.78,1667.51s.1-2,1.34-1.64.3,3.47-.73,3.36S1079.78,1667.51,1079.78,1667.51Z"/><path class="w" d="M1075.85,1660.87a3.7,3.7,0,0,0-2.95,1.48c-1,1.52-2.08,5.86-.43,8.85s3.75,2.26,4.62,2a5.18,5.18,0,0,0,3.45-3.78C1081.41,1666.58,1080.78,1660.29,1075.85,1660.87Z"/><path class="v" d="M1076.34,1684.09a15.51,15.51,0,0,1,1.28-3,3.78,3.78,0,0,1,1.17-1.12s1-.62,1.26-.41a.61.61,0,0,1,0,.77c-.14.19-.58.38-.73.57a1.89,1.89,0,0,0,.06,1.19c.12.24,3.13-1.68,3.13-1.68s.84-.6,1.1-.82.85-.8.85-.8.94-.83,1.18-.51-.49,1.15-1.24,2a22.46,22.46,0,0,0-1.71,1.75c.15.25,1.83-.77,1.83-.77a6,6,0,0,1,1.06-.85c.35-.48,1.13-1.08,1.39-.68a8,8,0,0,1-.78,1.2s-.66.61-1,.93a23,23,0,0,1-1.89,1.43c-.32.28-.12.3-.12.35a11,11,0,0,0,1.14-.69,7.8,7.8,0,0,0,1.11-.67,9.32,9.32,0,0,1,1.13-.79c.87-.53,1,.13.32.75l-.89.75c-1.21,1-2.51,1.65-2.45,1.82s2.38-1.12,2.38-1.12,1.45-.35.37.57a11.91,11.91,0,0,1-2.47,1.63,11,11,0,0,1-2.79,1.32c-1,.21-2.39.48-3.06.61Z"/><path class="w" d="M1050,1679.69l6.76-1.28s1.56,5.6,1.86,6.21c0,0,12.69,0,17.71-.53l1.78,3.66c-1,.13-1.78.16-2.25.25-.93.16-15.65,3-15.65,3s-5.93.87-6.59,0S1050,1679.69,1050,1679.69Z"/><path class="g" d="M1050.37,1685.85s-6.31-14.46-6.42-18.53,4-8.46,7.47-7.55,7.65,22.41,7.65,22.41Z"/><path class="b" d="M1076.66,1669.87l-3-.16A1.32,1.32,0,0,0,1075,1671C1076.59,1671.11,1076.66,1669.87,1076.66,1669.87Z"/><path class="w" d="M1058.48,1638.68c-.17-.11-3.9,9.09-2.14,12.33s6.29,5.33,8.52,3.7c2.47-1.8,5-12.06,1.92-15.73S1058.48,1638.68,1058.48,1638.68Z"/><path class="q" d="M1066.64,1633.52a10.74,10.74,0,0,0-6.32,1.73c-1.37-.19-3.37.08-6,2.69a8,8,0,0,0-.52,10.6c2.14,2.75,2,4.88,2,4.88a24.41,24.41,0,0,0,1.3-3.7,5.81,5.81,0,0,0,0-1.86c-.29-1.54,2-1.94,2.83-2.94.66-.77,1.21-2.78,2.27-4.07l1.11-.9a5.36,5.36,0,0,1,4-.09C1069.07,1640.75,1070.6,1633.72,1066.64,1633.52Z"/><path class="w" d="M1059.37,1646.58c-.28,1.17-1,2-1.73,1.83s-1-1.24-.71-2.41,1-2,1.73-1.82S1059.65,1645.42,1059.37,1646.58Z"/><path class="b" d="M1062.63,1650.29l3.72.75a1.65,1.65,0,0,1-2,1.11C1062.33,1651.8,1062.63,1650.29,1062.63,1650.29Z"/><path class="ab" d="M1136.22,1687.47c-.29-.45,2-1.52,2-2.06s-3.17.3-3.4-.11c-.41-.76,3.43-1.13,3.26-1.49s-4.14-.18-3.9-.94,4.13.24,4.12-.24-3.7-.6-3.89-1.59c-.1-.53,6.28,1,6.86.58s-1.39-2.54-1-3,3.25,4.41,3.65,4.49,9,2.33,11.91,2.27c.1-1,1.24-6.44,1.31-7.38,1.78.66,3.59.41,5.39,1-.41,3.15-2.52,11.22-3.22,11.8-2.12,1.75-13.32-3.41-15.49-4.22s-3.14-.09-4.49-.17S1136.52,1687.92,1136.22,1687.47Z"/><path class="w" d="M1133.83,1758s-.55,5.93-.19,7.87a6.62,6.62,0,0,0,.28.94c.37,1.09-.64,4.4-.64,4.4l-13.52,0c-.74,0-.25-.46.35-.89a27.41,27.41,0,0,1,4.89-2.62c.21-.1,1-.56,1.22-.72a9.22,9.22,0,0,0,2-1.68c1-1.06,1.14-6.29,1.14-6.29Z"/><path class="w" d="M1118.52,1748.15s-3,5.17-3.43,7.08a6.81,6.81,0,0,0-.15,1c-.11,1.14-2.4,3.73-2.4,3.73l-12.33-5.56c-.67-.31,0-.53.7-.67a27.27,27.27,0,0,1,5.54-.35c.22,0,1.09-.12,1.4-.15a9.15,9.15,0,0,0,2.48-.72c1.33-.56,3.64-5.25,3.64-5.25Z"/><path class="aa" d="M1161.86,1653c.5-3.63,3.73-6.67,7.2-7.83,11-3.68,17.16,10,26,13.19,2.65.95,5.45,1.51,8,2.6a10.18,10.18,0,0,1,.6,3.59,15.1,15.1,0,0,1-.64,3.77l-3.55-.74,2.54,3.33c-1.73,3.64-4.59,6.85-7.4,9.89a36.84,36.84,0,0,1-13.82,8.94,130.86,130.86,0,0,1-8.9-10.71,52.85,52.85,0,0,1-8.51-13.92A24.38,24.38,0,0,1,1161.86,1653Z"/><path class="z" d="M1107.85,1753.21a12.28,12.28,0,0,0,7.09,3c-.11,1.14-1,4.76-1.38,4.59-3.08-1.41-6-2-14.73-6.19-.32-.15.22-1.22.53-1.37C1100.23,1752.85,1107.54,1753.24,1107.85,1753.21Z"/><path class="i" d="M1163,1668.8c-5.28,1.79-7.76,14.44-7.76,14.44s8.29,2.31,10.41,1.1c0,0,2.41-10.69,3.28-10.31Z"/><path class="n" d="M1168.49,1667h0a60.18,60.18,0,0,0-5.91,1.91c-2,.85-3.11,7.53-2.92,15.74.07,1.26,1,20.6,1.12,20.66,2.42,1.56,16.85,2.32,17.85,1s1.78-24.26,2.27-25.06l.66-9.69s-.52-2.68-1.07-2.79A92.36,92.36,0,0,0,1168.49,1667Z"/><path class="w" d="M1174.41,1661.88a37.19,37.19,0,0,0-.75,6.78c.19,1.92-.72,8.11-4.78,8.13s-.77-7.87-.39-9.75a72.42,72.42,0,0,0,.47-7.7Z"/><path class="n" d="M1168.88,1662.26c.06-1.59.08-2.92.08-2.92l5.45,2.54s-.19,1-.39,2.26A4.74,4.74,0,0,1,1168.88,1662.26Z"/><path class="w" d="M1172.33,1647.7a6.76,6.76,0,0,1,3.89,2.59c1.52,2.16,2.75,8.61-1.9,11.81s-8.51-.95-8.72-5.13S1166.08,1647.18,1172.33,1647.7Z"/><path class="w" d="M1164.46,1655.7c.45,1,1.27,1.59,1.85,1.34s.69-1.28.25-2.27-1.27-1.59-1.85-1.33S1164,1654.71,1164.46,1655.7Z"/><path class="aa" d="M1171.63,1647.58s3.22,6.59,5.86,7.09,2.73,3.87,2.73,3.87-.34-7.77-2.86-9.46A10.33,10.33,0,0,0,1171.63,1647.58Z"/><path class="w" d="M1176.5,1656.1c-.3,1.1,0,2.16.79,2.36s1.6-.51,1.9-1.61,0-2.16-.79-2.37S1176.81,1655,1176.5,1656.1Z"/><path class="aa" d="M1160.58,1704v3l-28.67,6-7.11,21.38,4-2.71-.91,32.91,6,0s10.45-27.61,7-41.5l31.72.49s14.38-5.56,7-22.3Z"/><path class="l" d="M1160.58,1707s-29.74.2-31.85,1.83-18,42-18,42l6.91,2.58s13.75-22.93,14.48-24.56,6.06-13.59,8.09-14.81S1160.58,1707,1160.58,1707Z"/><path class="v" d="M1184.25,1675.58l-5,4.17,4.91,8c-2.26,1.4-15.22,3.75-15.28,3.75l.45,3s17.54.76,20.21-3.4C1191.82,1687.59,1184.26,1675.5,1184.25,1675.58Z"/><path class="w" d="M1171.45,1694.58l-1.39-3.29c-.39,0-3,.1-3,.07a34,34,0,0,0-3.47-1.9c-.29-.1-1.17-.24-1.25,0a.45.45,0,0,0,.25.57l.64.27c.2.08.77.42.79.68s-3.32.17-3.32.17-1-.07-1.27-.11-1.06-.23-1.06-.23-1.33-.2-1.37.16,4.32,1.32,4.32,1.54-1.84.27-1.84.27a5.65,5.65,0,0,0-1.25-.16c-.51-.22-1.52-.24-1.55.21a8.67,8.67,0,0,0,1.3.5s.83.17,1.21.27a20.88,20.88,0,0,0,2.2.22c.39.08.24.18.27.22a9.12,9.12,0,0,1-1.25,0,8,8,0,0,1-1.2,0,8.42,8.42,0,0,0-1.29-.08c-.94,0-.78.6.1.74l1.07.17c1.45.22,2.8.11,2.83.26s-2.44.26-2.44.26-1.33.42,0,.63a7.76,7.76,0,0,0,2.77,0,10.85,10.85,0,0,0,2.83-.34A60,60,0,0,1,1171.45,1694.58Z"/><path class="n" d="M1180.49,1668.8c4.92,2,8.27,14.44,8.27,14.44s-8.29,2.31-10.42,1.1c0,0-2.41-10.69-3.27-10.31Z"/><path class="z" d="M1126.23,1766.57a12.25,12.25,0,0,0,7.7-.2c.36,1.08,1.06,4.74.64,4.74-3.39,0-6.26.65-16,.49-.35,0-.31-1.2-.08-1.46C1119.15,1769.41,1126,1766.73,1126.23,1766.57Z"/><path class="b" d="M1168.29,1659.34l3.68.41a1.63,1.63,0,0,1-1.87,1.28C1168.12,1660.87,1168.29,1659.34,1168.29,1659.34Z"/><path class="af" d="M827.06,1693l.27,19.49,8.48,2.52-1-13.62.52-9s-6.49-1.66-6.68-1.38S827.06,1693,827.06,1693Z"/><path class="l" d="M828.91,1672.56c.38,0,1.42.36,2.94,3.22,1.95,3.66,2.94,18.15,2.94,18.15l-6.63-.3-1.08-2.31-1.8-17.75S828.81,1672.55,828.91,1672.56Z"/><path class="g" d="M817.72,1671a51.38,51.38,0,0,1,11.19,1.59s5.36,18.45,1.48,31.75c-.87,3-.82,12-.82,12l-28-1.3s4.12-22.28,3-25.93-1.15-16.4-1.15-16.4l5.64-1A56.08,56.08,0,0,1,817.72,1671Z"/><path class="f" d="M823.69,1713.65s14.86-2.23,19,.11-4.42,13-4.42,13-11.42-.75-14.78-.73-13.56.86-19.5,0-5.26-10.94-4.14-12.17S823.69,1713.65,823.69,1713.65Z"/><path class="w" d="M829.13,1767.35s-.63,2.76.65,4.52,6.49,3.35,7.19,4.31a3.12,3.12,0,0,1,.67,1.79l-14.5,0,0-5.38.58-3.89Z"/><path class="q" d="M830.7,1772.74s-3.67,2-5.5,1-1.77-1.34-2.28-.91-.58,5.48-.58,5.48h16.3c1.13-.08,1.68-1.12.74-2a13.47,13.47,0,0,0-1.81-1.24C836.28,1774.21,830.7,1772.74,830.7,1772.74Z"/><path class="x" d="M834.26,1718.05c1.35-2.75,4.75-6.73,9-3.9,4.07,2.69,3,11.28,1.21,16.54s-13.27,36.06-14,40.41l-7-.83s3.38-25.11,4.2-31.18C828.48,1733.25,831.92,1722.8,834.26,1718.05Z"/><path class="w" d="M813.34,1759.24s.57,8.22,1.64,10.5-.06,6.14-.11,6.67-2.24,1.29-5.72.84-3.41-1.44-3.13-3,2.13-3.64,2.24-5.15-1.07-7-1.07-7Z"/><path class="q" d="M808.72,1778.36c-3.57-.47-3.13-2.63-2.84-4.27.18-1,1.2-2.24,1.81-3.38a5.76,5.76,0,0,0,2.4,1.43c1.61.58,3.82-.58,5.23-1.3a26.58,26.58,0,0,1,.48,5.67C815.74,1777.06,812.3,1778.83,808.72,1778.36Z"/><path class="x" d="M810.87,1728.87l4.3,40.16-8.29,1.26s-10.19-43.64-9.67-50.32,4.34-7.24,4.34-7.24S809,1711.09,810.87,1728.87Z"/><path class="aa" d="M815.76,1647.54s-3.34-2.49-5.21,1.26a8.36,8.36,0,0,0-1.43-.08,12.23,12.23,0,0,0-2.21,1.15,8,8,0,0,0-4.11,6.19c-.43,3,.7,5.22,2.61,7.52a8.09,8.09,0,0,0,2,1.82c.94.56,1.75.23,2.66.51s1,1,1.91.82c1.32-.28,2.81-1.66,4.39-1.32s5.38-.68,5.39-.69c4.89-1.32,2.48-10,1.85-13.07C823,1648.77,818.78,1646.75,815.76,1647.54Z"/><path class="w" d="M818.26,1667l.94,3.18.5,1.78a1.68,1.68,0,0,1-1.49,2.41,5.58,5.58,0,0,1-6.14-2.85l-.85-9.84Z"/><path class="n" d="M811.49,1664.9a12.17,12.17,0,0,0,7.72,5.35l-1-3.22-7-5.32Z"/><path class="w" d="M813.58,1651.84a5.46,5.46,0,0,1,7.46,3,34.39,34.39,0,0,1,1.1,4.6c.69,4.23-1.1,8.65-3.19,8.91s-8.27-1.79-9.35-7.78C808.94,1656.9,810.47,1653.28,813.58,1651.84Z"/><path class="w" d="M811.21,1660.89a1.58,1.58,0,0,1-1.25,1.88,1.66,1.66,0,0,1-1.75-1.51,1.58,1.58,0,0,1,1.26-1.88A1.65,1.65,0,0,1,811.21,1660.89Z"/><path class="aa" d="M817.4,1663.11s-2.79.6-3.09,1.49a3.23,3.23,0,0,0,1.13,3.37c1.23,1.12,4.13.72,4.95.22a4.07,4.07,0,0,0,1-4.21C820.72,1662.6,817.4,1663.11,817.4,1663.11Z"/><path class="w" d="M816.33,1665s-.07,1,.28,1.24a3.7,3.7,0,0,0,1.2.46,1.89,1.89,0,0,0,1.72-.56l.1-.14a4.23,4.23,0,0,0,.47-1.38,6.4,6.4,0,0,0-1.79-.3A8.15,8.15,0,0,0,816.33,1665Z"/><path class="ag" d="M833.93,1660.32c-.33-.06-.4-.48-.41-1.16a10,10,0,0,0-1.55-3.11c-1.38-2.24-3-4.78-2.41-6.53a2.25,2.25,0,0,1,1.31-1.4,1.74,1.74,0,0,1,1.77.08c2.45,1.63,2.21,10.35,2.2,10.72l-.06.29v0c-.34,1-.61,1.09-.77,1.09Zm.4-1.44c.07-2.46-.14-9-2-10.25a1.22,1.22,0,0,0-1.27,0,1.74,1.74,0,0,0-1,1.08c-.47,1.53,1.1,4.07,2.35,6.12.91,1.46,1.62,2.63,1.63,3.37a2.44,2.44,0,0,0,0,.44,3.7,3.7,0,0,0,.22-.52Z"/><path class="ag" d="M834.44,1773.92c.53,0,1-.62,1-1.39l-.14-112.16c0-.77-.44-1.39-1-1.39s-1,.62-1,1.39l.14,112.16C833.47,1773.3,833.9,1773.92,834.44,1773.92Z"/><path class="n" d="M833.38,1778l2.22,0a.65.65,0,0,0,.59-.73l-.34-4.73a.63.63,0,0,0-.61-.62l-1.66,0a.65.65,0,0,0-.6.64l-.21,4.74A.64.64,0,0,0,833.38,1778Z"/><rect class="n" x="832.72" y="1658.39" width="3.15" height="14.93" rx="1.28" transform="translate(1696.07 3317.67) rotate(179.05)"/><path class="w" d="M807.61,1690s.22,7.17.41,8c0,0,14.13,3.13,20.32,4h.23c.13,0,.28,0,.37-.09a6.8,6.8,0,0,1,2-1.79c.93-.59,1.88-1.15,3.05-.55a3.71,3.71,0,0,0,1.21.3,4.12,4.12,0,0,1,1.6.61,1.05,1.05,0,0,1,.42,1.36,3.53,3.53,0,0,0-.38,1c0,.6-1.35,5.29-2.34,5.37a17.8,17.8,0,0,1-4.14-.89,4.53,4.53,0,0,0-1.88-.39,2.83,2.83,0,0,1-.41,0h0c-4.58-.23-20-.74-20-.74s-7.36-.69-7.91-1.92-1-14.63-1-14.63Z"/><path class="g" d="M798.68,1694.4c-.44-8.88-.38-19.83,4.62-21.7,2-.73,5.45,3.7,4.82,21.88A37.46,37.46,0,0,1,798.68,1694.4Z"/><path class="ah" d="M897,1650.55a36.38,36.38,0,0,0-5.59,12.39c-1.93,7.67,2.84,18,2.84,18l-3.15,6.66s-1.58,15.63-1.34,18.63,1.34,40.82,1.34,40.82l6.43,1.44s-1.83-39.37-1.62-40.13,3.93-50.48,3.93-50.48Z"/><path class="ai" d="M889.45,1780.61a27.38,27.38,0,0,1,4.78-2.65c.2-.09.93-.55,1.19-.71a9.34,9.34,0,0,0,1.9-1.69c.55-.61.81-2.56.93-4.12-.31-3.49-5.36-59.35-6.43-65.39-1.09-6.25.58-15.77.58-15.77l3.89-1.47,7.4,25.64-.58,19.51a52.31,52.31,0,0,1,2,9c.22,3.36-2.52,30.64-2.52,30.64h0a14,14,0,0,0,.15,2.41c.2,1,1.32,3.12.81,4.08a2.69,2.69,0,0,1-1.1,1.21l-13.29.21C888.39,1781.51,888.87,1781,889.45,1780.61Z"/><path class="ai" d="M909.63,1688.28s4.61,7,5.71,12.72-.81,23.47,1.31,31c1.14,4.09,5.48,10.4,6.14,15.69s3,20.52,3,20.52h0a13.43,13.43,0,0,0,1.6,4.5,13.76,13.76,0,0,1,1.74,2.3c.8,1.58.36,3.94-.24,5.24-.3.67,0,.67-.67.88a4.28,4.28,0,0,1-5.13-2.41,12.19,12.19,0,0,1-1-4.43,20.53,20.53,0,0,0-.73-4.69h0l-14.75-36.19-10.68-31.23-2.74-16.08Z"/><path class="aa" d="M922.64,1777.7a6.56,6.56,0,0,0,6.43-2.69c.81,1.59,1.2,4,.61,5.26s-2.06,1.12-3.27,1.16a3.16,3.16,0,0,1-2.91-1.78A11.39,11.39,0,0,1,922.64,1777.7Z"/><path class="aa" d="M895.42,1777.25a12,12,0,0,0,7.57-.3c.37,1.06.87,2.4.6,3.17-.32.94-.78,1.15-1.18,1.17-3.21.08-11.76.19-14.21.23a.4.4,0,0,1-.31-.66C888.49,1780.13,895.16,1777.41,895.42,1777.25Z"/><path class="n" d="M906.63,1733.51l-.83,0h0l-.83,0h0l-.83,0h0l-.85,0a53.83,53.83,0,0,1-9.54-.36c-1.27-12.74-1.75-24.37-2.22-26.94-1.14-6.25,1-16.1,1-16.1l1-.18-.65-3.65,17.14,2.16s4.8,7,6,12.72-.84,23.48,1.36,31C917.22,1732.36,912.32,1733.12,906.63,1733.51Z"/><path class="ah" d="M893.48,1662.94c-.22,1-2.54,6.71-2.79,7.76-3.08-.46-12.13-3.19-12.54-3.35l-1.47,3.65a8,8,0,0,1,.77.39c2.21,1.25,15.59,8.31,18.13,6.83.84-.49,2.93-11.3,3.86-14.58C897.59,1662.73,895.29,1664,893.48,1662.94Z"/><path class="w" d="M876.68,1671l1.47-3.65.33.11-.33-.11c-.42-.15-2.74-5.49-3.27-5s1.25,3,.56,3.4-7.29-2.41-7.26-1.83c0,1.08,4,1.88,3.92,2.39s-4.08-1.26-4.46-.49,3.92,1.28,4,1.69-4,.13-3.72,1c.17.47,3.71.15,3.62.72s-2.72,1.3-2.47,1.83,2.12-1,3.56-.63c1.26.28,2.29-.14,4,.59Z"/><path class="aa" d="M892.91,1639.2c-.67-3.06-1.33-6.13.44-9.49a8.64,8.64,0,0,1,6.79-4.63c8.14-1,6.4,6.63,17.77,8.28,3.54.51,6.82,1,9.77,2.76,5.33,3.17,7.34,8.26,3.81,16.56-8.65,20.3-29.36,2.66-32.51-.94S893.35,1641.17,892.91,1639.2Z"/><path class="n" d="M905.72,1648.86s4.11.46,6.57,3.14-4,24.16-4.42,27.56,4.27,12.82,4.27,12.82-16,3.19-20.21.44c0,0-.37-26.3.08-28.73s4.17-12.32,5.06-13.29S905.72,1648.86,905.72,1648.86Z"/><path class="w" d="M903.65,1640.57s0,.18.09.5c.28,1.49,1.23,6.3.65,8.76-.43,1.81-1.56,5.91-5.27,5.27-1.11-.19.93-4.81.83-5.3-.18-.94-.44-2.22-.7-3.53-.15-.74-.29-1.49-.43-2.19-.4-2-.72-3.65-.72-3.65Z"/><path class="n" d="M903.74,1641.07c-.06-.32-.09-.5-.09-.5l-5.55-.14s.32,1.64.72,3.65c.14.7.28,1.44.43,2.18a5.2,5.2,0,0,0,2.65-1.33,7,7,0,0,0,2-3C903.84,1641.6,903.79,1641.3,903.74,1641.07Z"/><path class="w" d="M900.31,1627.37a6.53,6.53,0,0,1,3.91,2.43c1.64,2.12,3.41,8.67-.67,12.23s-8.11-.47-8.7-4.74S894.37,1627.21,900.31,1627.37Z"/><path class="w" d="M893.66,1636.23c.26,1,.93,1.73,1.51,1.56s.83-1.15.57-2.18-.93-1.73-1.5-1.55S893.4,1635.2,893.66,1636.23Z"/><path class="aa" d="M897.79,1627.39s5.33,6.11,7.83,6.4,2.83,3.6,2.83,3.6-.89-7.63-3.37-9.1S897.79,1627.39,897.79,1627.39Z"/><path class="w" d="M904.8,1635.27c-.2,1.11.21,2.12.92,2.27s1.44-.64,1.65-1.74-.21-2.12-.92-2.27S905,1634.17,904.8,1635.27Z"/><path class="b" d="M897.4,1639.41l3.87,0a1.7,1.7,0,0,1-1.79,1.53C897.41,1641,897.4,1639.41,897.4,1639.41Z"/><path class="ah" d="M916.5,1700.87c-1.61-7.47-7.37-13.2-7.75-20.9.33-3.31,8.28-22.84,5.69-26-2.11-2.58-6-5.43-8.44-5.11-2.23,3.09-5.54,9.6-6,14.92-.74,8.78-1.19,70,0,84.19,3.5.16,23.41-.69,23.4-.72C922.21,1737.77,917.64,1706.64,916.5,1700.87Z"/><rect class="u" x="888.45" y="1667.42" width="19.28" height="25.09" rx="0.95" transform="matrix(0.99, -0.14, 0.14, 0.99, -233.69, 147.67)"/><path class="aa" d="M892.05,1667.41a.18.18,0,0,1,.16-.21l7.17-1a.18.18,0,0,1,.22.16l.11.74-7.55,1.11Z"/><path class="aa" d="M894.7,1667.06a1.14,1.14,0,1,0,1-1.3A1.14,1.14,0,0,0,894.7,1667.06Zm.4-.06a.73.73,0,0,1,.62-.83.73.73,0,1,1-.62.83Z"/><path class="n" d="M892.14,1667.22a.17.17,0,0,0-.09.19l.11.75,7.55-1.11a1,1,0,0,1-.8,1.08l-5.68.83a.94.94,0,0,1-1.07-.8l-.11-.75A.17.17,0,0,1,892.14,1667.22Z"/><path class="w" d="M897,1682.19l-1.36.27s-2-1.15-2.84-1.52a20.15,20.15,0,0,0-3.52-.82c-.49-.07-.32.47.1.65a4.12,4.12,0,0,1,1.81,1.32,3.35,3.35,0,0,1-1.35-.11c-.46-.2-1.1-.64-1.11-.87s-.12-.78-.27-.75-.09.19-.15.38-.1.36-.14.54-.17.8-.21,1a16.33,16.33,0,0,0,.26,2.31c.08.86.33,1.25.79,1.47a11.23,11.23,0,0,0,2.68.54,18.29,18.29,0,0,0,4.92-.48l1.65-.17Z"/><path class="ah" d="M915.71,1656a9.87,9.87,0,0,0-4.76-5.25c-.56-.36-1.07.89-2,2.14-3.44,4.71-3.31,8.55-1.69,16.25l1.82,8.71s-9,3.79-13.52,4.61a28.43,28.43,0,0,0,.24,3.8l.63-.11c.85-.1,14.43-1.44,14.43-1.44s5.39-.78,5.75-1.71a27.15,27.15,0,0,0,.23-4.42h0S917.35,1659.8,915.71,1656Z"/><path class="v" d="M1466.19,1716.6c.41-1.15,7.33-22.63,7.33-22.63l-10.65,2.37L1458,1713c-.42.84-7.91,21-10.51,27.54a4.19,4.19,0,0,1-3,2.53h0a14.49,14.49,0,0,0-3.09,1.08c-.44.3-1.32,1-1.85,1.34s-1.16.84-1.42,1.08a3.16,3.16,0,0,1-.92.44.56.56,0,0,0,0,1,2.38,2.38,0,0,0,1.51-.16c1.16-.38,2.66-1.59,2.71-1.42a37.5,37.5,0,0,1-1.85,3.31,41.69,41.69,0,0,0-2.33,4.35c-.17.76.27,1,.65.75s3.4-4.5,3.4-4.5.39-.55.47-.2-2.69,4.26-3,4.92-.2,1.25.47,1.08,3.52-4.55,3.52-4.55.35-.54.51-.31-2.25,3.51-2.32,3.91a.54.54,0,0,0,.82.58c.68-.33,3.07-4.24,3.07-4.24s.26-.24.31,0-1.81,3.15-1.76,3.62a.37.37,0,0,0,.4.36c.78.1,2.19-3,3.27-4.24S1465.73,1717.87,1466.19,1716.6Z"/><path class="ab" d="M1509.53,1831.09s2.27,2.22,2.32,3,.21,9.54-.72,10.36-3.66,1.39-2.78,2.31c.66.69,5.76.54,9.14.36,1-.06,2.23-7.93,2.62-9.09.57-1.68,2-5.47,1.43-6.64a9.73,9.73,0,0,0-3.15-2.84,15.53,15.53,0,0,1-3.49-3.72Z"/><path class="w" d="M1486,1836.26s2,5.76,2,5.77c.15.91.75,3.17.75,4,0,3.12-14-2.64-10.9-4a3.31,3.31,0,0,0,1.27-2.18,7.25,7.25,0,0,0-1.18-3.68Z"/><path class="aa" d="M1463.92,1729.11s-1,10.31-1,10.47c0,16.68-3.31,49.28-2.68,52.42,1.53,7.65,18,46.69,18,46.69l8.93-1.07-11.64-46.74,4.28-18.81,6.06-37.19Z"/><path class="f" d="M1493.88,1738.23l1.7,9.78,4.58,40.24,17.45,39.33s-2.45,5.72-6.07,6.52l-27.78-40.38-17.26-51.66.61-11.48Z"/><path class="h" d="M1460.36,1704.54l12.38,1.27s.57-10.15.57-15c0-5.87-.5-13.44-1.21-13.28a10.84,10.84,0,0,0-6.27,3.75C1460.31,1688.88,1460.36,1704.54,1460.36,1704.54Z"/><path class="ad" d="M1466.44,1689.78c-.26,1.79-5,50.47-5,50.47,22.54,10.89,35,1.94,35,1.94s-.74-34.18.15-38.83c.58-3.08,1.31-23.54-.68-24.11a49.37,49.37,0,0,0-8.7-1.85c-2.73-.28-13.34-.45-15.24.19A24.16,24.16,0,0,0,1466.44,1689.78Z"/><path class="aa" d="M1518.28,1828.53s-5.24,14.78-7.3,15.49c-.54.19-3.16.67-3.65,1.83a5,5,0,0,0,0,1.51h10.93s1.38-6.51,1.93-9.37c0,0,2.9-7,2.57-7.62S1518.28,1828.53,1518.28,1828.53Z"/><path class="aa" d="M1489.53,1847.05l-1.6-5.08s-3.38,1.43-5.07,1.19-5-1.19-5-1.19c-6.74,2.22-12.27,3.3-11.26,5.08h22.91Z"/><path class="w" d="M1484.18,1667.41l1.65,10.13s-6.07,12.9-9.69,11.82c-3.05-.91-1.18-12-1.18-12s1.66-5.95,1.17-8.93S1484.18,1667.41,1484.18,1667.41Z"/><path class="n" d="M1476.13,1668.44c-.5-3,8-1,8-1l.13.87a4.8,4.8,0,0,1-.92,1.46,11.51,11.51,0,0,1-7.48,3.25A15.71,15.71,0,0,0,1476.13,1668.44Z"/><path class="w" d="M1485.58,1652.53c.24-.09,1.93,12-1.28,15.29s-9.48,4.41-11.73,1.8c-2.49-2.9-2.36-15.86,2.64-19.27S1485.58,1652.53,1485.58,1652.53Z"/><path class="u" d="M1484.4,1647.88c1.75.2,4.14,1.13,6.6,5,3,4.81.79,10.14-2.73,12.75s-3.46,5.61-3.46,5.61l-.58-1.54a8.53,8.53,0,0,1-.44-3.68,7.2,7.2,0,0,1,.57-2.21c.85-1.74-1.82-2.9-2.57-4.36-.57-1.11-.6-3.67-1.51-5.52l-1.08-1.41s-2.5-1.87-5-1.34S1474.81,1640.29,1484.4,1647.88Z"/><path class="w" d="M1482,1661.64c0,1.47.67,2.68,1.56,2.69s1.62-1.17,1.65-2.64-.68-2.67-1.56-2.69S1482,1660.17,1482,1661.64Z"/><path class="ag" d="M1466.66,1692.46c-.2.07-.6,0-1.46-1l0,0-.2-.34c-.18-.46-4.27-11.46-1.85-14.62a2.33,2.33,0,0,1,2.22-.86,3,3,0,0,1,2.27,1.21c1.44,2,.56,5.91-.22,9.37-.45,2-.87,3.87-.63,4.64s.38,1.43,0,1.64A.19.19,0,0,1,1466.66,1692.46Zm-.9-1.46a6,6,0,0,0,.52.57c0-.14-.08-.33-.16-.58-.31-1,.09-2.74.6-5,.72-3.15,1.6-7.07.34-8.82a2.33,2.33,0,0,0-1.77-.92,1.67,1.67,0,0,0-1.61.59c-1.81,2.36.77,10.82,1.94,13.93Z"/><path class="ag" d="M1510.33,1822.23a1.52,1.52,0,0,1-1.77-1.17L1465,1692.89a1.54,1.54,0,0,1,.7-2,1.52,1.52,0,0,1,1.77,1.17L1511,1820.22A1.53,1.53,0,0,1,1510.33,1822.23Z"/><path class="n" d="M1513.26,1826.41l-2.84.92a.82.82,0,0,1-1-.58l-1.41-5.55a.82.82,0,0,1,.54-1l2.13-.69a.83.83,0,0,1,1,.47l2.12,5.32A.82.82,0,0,1,1513.26,1826.41Z"/><rect class="n" x="1466.58" y="1689.59" width="4.24" height="20.1" rx="1.27" transform="translate(-451.46 533.95) rotate(-17.91)"/><path class="w" d="M1509.92,1699.63l-8.9,6.45,6.2,9.8c-4.94,4.94-16.81,12.84-16.81,12.84s-1.11.76-2.6,1.62c-.35.21-.74.44-1.14.66a8.37,8.37,0,0,0-2.41.2c-.86.3-2.5.43-2.87.69s-1.85,2.25-2.1,2.43a2.31,2.31,0,0,0-.53.81c-.11.21-1.92,1.48-2.14,1.93s.36,1.6.77,1.76c0,0,.08.09,0,.33a1.49,1.49,0,0,0,.2,1.14,1,1,0,0,0,1.15.3s.21-.08.27,0a3.26,3.26,0,0,0,.5.82c.3.29.75.34,1.37,0,0,0,.38,1.58,1.69.79l1.77-1.08a7.74,7.74,0,0,0,1.51-.63c.41-.3,3-2,3.12-2.25a5.13,5.13,0,0,1,.54-.84,14.85,14.85,0,0,0,1.4-1.37,17.73,17.73,0,0,1,1.6-1.43l2.6-1.22h0c12.5-5.87,24.72-11.28,24.08-15.8C1518.83,1715,1512.82,1703.67,1509.92,1699.63Z"/><path class="ad" d="M1512,1699.9l-10.73,7.2s-6-9-9.29-12.19c-4.06-4,1.48-16.3,4.1-15.61C1501.9,1680.86,1512,1699.9,1512,1699.9Z"/><path class="b" d="M1472.5,1664.41l5.32.55a2.33,2.33,0,0,1-2.67,1.83C1472.29,1666.58,1472.5,1664.41,1472.5,1664.41Z"/><path class="w" d="M1396.75,1828.62s-.7,7.69-.24,10.2a9.15,9.15,0,0,0,.36,1.23c.48,1.41-.83,5.7-.83,5.7l-17.53.07c-1,0-.32-.61.46-1.16a35.28,35.28,0,0,1,6.34-3.4c.27-.13,1.23-.72,1.58-.93a11.87,11.87,0,0,0,2.53-2.17c1.28-1.39,1.47-8.17,1.47-8.17Z"/><path class="z" d="M1386.89,1840.33a15.91,15.91,0,0,0,10-.26c.48,1.4,1.38,6.15.84,6.15-4.39,0-8.11.83-20.71.63-.45,0-.4-1.56-.1-1.9C1377.71,1844,1386.54,1840.54,1386.89,1840.33Z"/><path class="h" d="M1418.74,1737.3s-.25,11-3.4,18c-3.06,6.85-17.73,23.74-21.63,33.6,1.2,5.56,4.52,13.38,4.28,19.54-.27,7,.13,25.47.13,25.47l-7.87.25-10.33-47.7,15.57-51.45,7.06-12.5Z"/><path class="w" d="M1452.37,1817.68s4.84,6.64,7,8.32c1.14.9,4.24,2.1,4.56,3.59s-14,14.63-14,14.63c-.76.67-.67-.26-.44-1.25.37-1.62.77-2.81,2.68-7.17.12-.28.47-1.43.61-1.84a13.18,13.18,0,0,0,.49-3.52c0-2-4.55-7.55-4.55-7.55Z"/><path class="z" d="M1452.72,1834a16.88,16.88,0,0,0,7.78-7.22c1.37.78,5,2.46,4.72,2.93-2.54,3.68-5.17,8.27-15.37,16.95-.37.31-1.86-1.48-1.87-2C1448,1843.33,1452.58,1834.37,1452.72,1834Z"/><path class="ad" d="M1418.18,1730.27s6.09,9.14,7.54,16.71c1.41,7.37-.94,29.61,1.52,39.93,4.17,3.87,11.36,8.38,14.7,13.56,3.78,5.88,14.7,20.8,14.7,20.8l-6.31,4.71-35.79-33.17-14.49-44.26-4-14.81Z"/><path class="v" d="M1400.05,1715.92c.24-1.23,3.86-24.12,3.86-24.12l-10.42,4.08-2.29,17.71c-.28.91-4.7,22.58-6.31,29.6a4.31,4.31,0,0,1-2.69,3h0a15.62,15.62,0,0,0-3,1.59c-.4.37-1.19,1.17-1.67,1.65s-1,1-1.26,1.32a3.84,3.84,0,0,1-.87.59.58.58,0,0,0,.13,1.07,2.51,2.51,0,0,0,1.51-.4c1.11-.56,2.45-2,2.53-1.86s-1.23,3.27-1.36,3.64a40.37,40.37,0,0,0-1.67,4.78c-.06.8.42,1,.77.66s2.74-5.1,2.74-5.1.31-.62.45-.28-2.06,4.75-2.27,5.47,0,1.29.65,1,2.85-5.17,2.85-5.17.27-.6.47-.4-1.73,3.91-1.74,4.34a.55.55,0,0,0,.93.45c.64-.43,2.44-4.78,2.44-4.78s.23-.29.31-.09-1.34,3.48-1.21,4a.37.37,0,0,0,.46.3c.8,0,1.74-3.41,2.65-4.82S1399.79,1717.28,1400.05,1715.92Z"/><path class="q" d="M1395.68,1669.36a30.89,30.89,0,0,1,2.8-14.85c2-4.08,6.78-6.4,11.18-6.4,14,0,15.76,18.53,24.66,25.69,2.72,2.18,5.76,4,8.33,6.32,9.5,8.71,5.23,24.83-3.5,32.46-6.05,5.3-15.57,8.31-23,4.16a23.49,23.49,0,0,1-9-9.69c-3-5.58-4.92-12-7-18C1397.85,1682.73,1396,1676.13,1395.68,1669.36Z"/><path class="ab" d="M1439.91,1746.22c0-.11-4.62-19.84-6.5-24.2s-9.17-24.62-9.17-24.62l9.44-2.07s6.1,15.86,8.87,23,1.59,20.38,1.72,24.11c0,0,.4,3.15.41,3.21h0a5.5,5.5,0,0,0,.22.82,11.23,11.23,0,0,1,.45,1.54,4.31,4.31,0,0,0,.41.71c.11.19.36,2.72.42,3.13a5.69,5.69,0,0,1-.13,1.33l.1,1.7c.08,1.25-1.22.92-1.22.92,0,.59-.17.9-.5,1a2.94,2.94,0,0,1-.79,0c-.06,0-.08.21-.08.21,0,.37-.39.66-.66.71a1.23,1.23,0,0,1-.9-.29c-.14-.16-.23-.14-.23-.14a1.55,1.55,0,0,1-1.58-.11,21.88,21.88,0,0,1-.57-2.3,1.77,1.77,0,0,1-.38-.69c0-.26-.9-2.09-1-2.46s.49-1.6.6-2.34a8.85,8.85,0,0,1,1-2.23,2.73,2.73,0,0,0,0-1Z"/><path class="aa" d="M1393.4,1694c4.36-13.24,9.25-12.68,9.25-12.68l-3.78,27.85c-2.7-.74-6.21-2.38-8.9-3.14A119.7,119.7,0,0,1,1393.4,1694Z"/><path class="f" d="M1413.82,1679s8-.51,11.23,3-7.06,31-7.64,35.41,2.95,16.19,2.95,16.19-18.9,3.81-24.3.23c0,0-.58-31.83,0-35s5.4-16,6.56-17.28S1413.82,1679,1413.82,1679Z"/><path class="w" d="M1411.14,1668.18s0,.24.12.64c.36,1.94,1.74,8.37,2.67,10.14,1.13,2.13-3.86,9-8.66,8.12-1.43-.25,1.21-6.26,1.08-6.9l-.91-4.59-.56-2.85c-.51-2.61-.93-4.74-.93-4.74Z"/><path class="n" d="M1411.26,1668.82c-.08-.4-.12-.64-.12-.64L1404,1668s.42,2.13.93,4.74c.18.91.37,1.88.56,2.83a6.67,6.67,0,0,0,3.43-1.72,9.21,9.21,0,0,0,2.61-3.88C1411.39,1669.51,1411.31,1669.12,1411.26,1668.82Z"/><path class="w" d="M1406.3,1651.79a6.46,6.46,0,0,1,5.52,2.36c2.12,2.75,4.41,11.28-.87,15.91s-10.5-.61-11.27-6.17S1398.61,1651.59,1406.3,1651.79Z"/><path class="w" d="M1398.12,1663.81c.63,1.22,1.69,1.9,2.36,1.51s.71-1.7.08-2.92-1.69-1.91-2.36-1.52S1397.49,1662.58,1398.12,1663.81Z"/><path class="q" d="M1405.92,1650.88s4.53,8.1,7.77,8.47,3.67,4.68,3.67,4.68-1.16-9.92-4.37-11.83A11.91,11.91,0,0,0,1405.92,1650.88Z"/><path class="b" d="M1409.67,1665.3l-6.78.27a3,3,0,0,0,3.24,2.54C1409.77,1668.07,1409.67,1665.3,1409.67,1665.3Z"/><path class="f" d="M1427.92,1709.24s-10.43-12.48-12.31-17.1.93-11.53,5.33-12.07,15.41,19.94,15.41,19.94Z"/><path class="w" d="M623.05,1666.66l6.77,4.09,1.75,7a186.19,186.19,0,0,0,19.95,7.08s1.23.32,2.85.61l4.4.79a12.53,12.53,0,0,0,3.49.06,10.34,10.34,0,0,1,3.39,0c.44.17,1.66.6,2.32.82s1.42.47,1.75.63a3.47,3.47,0,0,0,1.07.14.59.59,0,0,1,.36,1,2.58,2.58,0,0,1-1.56.33c-1.27,0-3.16-.74-3.15-.55a39.5,39.5,0,0,0,2.9,2.71,41.87,41.87,0,0,1,3.71,3.59c.42.7.05,1.08-.41,1s-4.82-3.4-4.82-3.4-.57-.43-.54,0,4.05,3.39,4.57,4,.59,1.17-.12,1.23c-.88.06-5-3.42-5-3.42s-.52-.42-.61-.15,3.37,2.78,3.57,3.16a.56.56,0,0,1-.64.84c-.78-.11-4.41-3.24-4.41-3.24s-.34-.16-.33.06,2.82,2.56,2.92,3a.39.39,0,0,1-.29.49c-.74.34-3.15-2.31-4.61-3.19s-2.7-2.54-4.57-3.38a20,20,0,0,0-4.94-1.09l-4-.35h0c-13.09-1.23-30.41-3.26-29.66-7.55C619.53,1680.71,621.76,1671.21,623.05,1666.66Z"/><path class="w" d="M633.15,1808.83s-.39,7.09-.4,7.11c-.14.9-.71,3.12-.71,3.94,0,3.07,13.42-2.61,10.42-4-.28-.13-1.7-1.06-1.79-2.1-.14-1.62-.49-4.88-.49-4.88Z"/><path class="l" d="M642.42,1815.88a46.74,46.74,0,0,1-4.76,1.17c-1.62.24-3.75-1.74-4.89-1.21s-1.13,6.39-1.13,6.39,16.83,1,21.58-.55C655.1,1821.06,648.87,1818.07,642.42,1815.88Z"/><path class="w" d="M603.57,1809.51s-.39,7.09-.39,7.11c-.15.9-.72,3.12-.72,3.94,0,3.07,13.43-2.61,10.42-4-.27-.13-2.12-1.75-2.21-2.8-.14-1.61-.07-4.18-.07-4.18Z"/><path class="l" d="M612.84,1816.56a46.74,46.74,0,0,1-4.76,1.17c-1.62.24-3.74-1.74-4.89-1.21s-1.3,5.89-1.3,5.89,18,1.33,22.21.08C626,1821.93,619.29,1818.75,612.84,1816.56Z"/><path class="aj" d="M624.85,1707.19l5.67,2.5,11.94,58.07L642,1811.3l-9.57.23s-4.45-38.09-4.45-41-20.62-51.65-20.62-51.65Z"/><path class="f" d="M620.47,1710.39s-4.18,44.74-4.18,52.29-3.39,49.75-3.39,49.75l-9.6,0s-.69-12.87-1.72-31.8c-.16-3,.21-8.95,0-12-1.49-22.07-4.44-42.85-3-51.09.22-1.33.65-4.79,1.48-5.67C606.31,1705.18,620.47,1710.39,620.47,1710.39Z"/><path class="h" d="M632.17,1675.07l-11.61-.79s-.57-10.57-.57-15.61c0-6.12-1.83-15.14-1.12-15a14.11,14.11,0,0,1,7.09,4.65C631.53,1656.25,632.17,1675.07,632.17,1675.07Z"/><path class="ad" d="M604.67,1643.47s-6.62.94-8.37,2.24a23.87,23.87,0,0,0-4.14,4.75s8.13,39.14,8.15,45.72c0,5.1-1.76,17.61-1.76,17.61s24.56,1.58,33.86-2.16c0,0-2.94-14.88-2.94-18.79s-3.51-39.43-4.31-41.91c-.73-2.25-2-6.3-6.54-7.29S604.67,1643.47,604.67,1643.47Z"/><path class="w" d="M606.47,1632.93l-1.64,10.93s6,13,9.56,11.88c3-.94,1.15-12.46,1.15-12.46s-1.63-6.18-1.14-9.27S606.47,1632.93,606.47,1632.93Z"/><path class="n" d="M614.4,1634c.49-3.1-7.93-1.08-7.93-1.08l-.13.91a4.8,4.8,0,0,0,.91,1.52,11,11,0,0,0,7.36,3.37A17.24,17.24,0,0,1,614.4,1634Z"/><path class="w" d="M605.09,1617.47c-.24-.09-1.9,12.45,1.26,15.9s9.34,4.58,11.55,1.86c2.45-3,2.33-16.48-2.59-20S605.09,1617.47,605.09,1617.47Z"/><path class="aa" d="M613.43,1608.5a13.71,13.71,0,0,0-7.18,4.14c-1.73.21-4.07,1.18-6.5,5.24a10.25,10.25,0,0,0,2.69,13.25c3.47,2.72,3.44,5.87,3.44,5.87l.53-1.64a9,9,0,0,0,.44-3.82,7.68,7.68,0,0,0-.56-2.3c-.84-1.81,1.79-3,2.53-4.53.57-1.16.59-3.82,1.49-5.74l1.07-1.47s2.46-1.94,4.87-1.39S618.31,1607.49,613.43,1608.5Z"/><path class="w" d="M608.66,1626.94c0,1.53-.66,2.78-1.54,2.8s-1.6-1.21-1.62-2.74.66-2.79,1.53-2.8S608.63,1625.41,608.66,1626.94Z"/><polygon class="w" points="684.79 1675.67 684.79 1684.19 676.26 1684.19 677.32 1675.67 684.79 1675.67"/><rect class="l" x="678.63" y="1715.93" width="2.65" height="54.21" transform="translate(1359.91 3486.06) rotate(180)"/><path class="b" d="M642.74,1760.61H640v-51.38a5.39,5.39,0,0,0-5.38-5.39h-3.2v-2.76h3.2a8.16,8.16,0,0,1,8.15,8.15Z"/><path class="ak" d="M665.76,1787.18c0,17.93,12,32.51,26.75,32.51s26.75-14.58,26.75-32.51-12-32.51-26.75-32.51S665.76,1769.25,665.76,1787.18Z"/><path class="q" d="M620.52,1702.31h0a2,2,0,0,0,2,2h9.93a2,2,0,0,0,2-2h0a2,2,0,0,0-2-2h-9.93A2,2,0,0,0,620.52,1702.31Z"/><path class="al" d="M666.42,1761.73h-2.76v-66a5.4,5.4,0,0,0-5.39-5.39h-3.19v-2.76h3.19a8.16,8.16,0,0,1,8.15,8.15Z"/><path class="ag" d="M670.11,1809.23c-4.82-6.55-7.48-15.26-7.48-24.5s2.66-17.94,7.48-24.49,11.46-10.34,18.46-10.34,13.55,3.67,18.46,10.34,7.48,15.25,7.48,24.49-2.66,18-7.48,24.5-11.46,10.34-18.46,10.34S675,1815.9,670.11,1809.23Zm-5.16-24.5c0,17.93,10.6,32.52,23.62,32.52s23.62-14.59,23.62-32.52-10.6-32.51-23.62-32.51S665,1766.81,665,1784.73Z"/><path class="am" d="M672,1811.66c-5.31-7.22-8.24-16.78-8.24-26.93s2.93-19.7,8.24-26.92c5.45-7.41,12.77-11.49,20.59-11.49s15.14,4.08,20.59,11.49c5.31,7.22,8.24,16.78,8.24,26.92s-2.93,19.71-8.24,26.93c-5.45,7.41-12.76,11.49-20.59,11.49S677.47,1819.07,672,1811.66Zm-4-26.93c0,18.86,11,34.2,24.61,34.2s24.61-15.34,24.61-34.2-11-34.19-24.61-34.19S668,1765.88,668,1784.73Z"/><rect class="an" x="717.18" y="1774.81" width="2.21" height="49.28" transform="translate(-1076.85 1070.46) rotate(-46.14)"/><rect class="an" x="659.76" y="1774.08" width="31.76" height="1.22" transform="translate(1351.29 3549.38) rotate(180)"/><rect class="an" x="690.96" y="1757.92" width="2.63" height="56.76" transform="translate(1384.56 3572.6) rotate(180)"/><rect class="b" x="672.9" y="1738.65" width="40.55" height="3.57" rx="1.07" transform="translate(1386.36 3480.87) rotate(180)"/><rect class="ao" x="671.54" y="1736.4" width="44.26" height="3.57" rx="1.07" transform="translate(1387.34 3476.36) rotate(180)"/><polygon class="an" points="657.57 1784.66 657.57 1753.12 660.49 1753.12 660.49 1784.66 693.02 1784.66 693.02 1753.12 695.94 1753.12 695.94 1787.26 695.78 1787.26 693.02 1787.26 660.49 1787.26 657.57 1787.26 657.24 1787.26 657.24 1784.66 657.57 1784.66"/><polygon class="ap" points="652.69 1717.7 652.69 1692.93 654.72 1692.93 654.72 1717.7 677.34 1717.7 677.34 1692.93 679.38 1692.93 679.38 1719.73 679.26 1719.73 677.34 1719.73 654.72 1719.73 652.69 1719.73 652.46 1719.73 652.46 1717.7 652.69 1717.7"/><rect class="aq" x="641.72" y="1703.79" width="45.3" height="52.3" rx="13.57" transform="translate(1328.73 3459.87) rotate(180)"/><rect class="g" x="645.48" y="1703.79" width="45.3" height="52.3" rx="13.57" transform="translate(1336.25 3459.87) rotate(180)"/><rect class="aq" x="646.42" y="1682.5" width="36.62" height="17.9" rx="5.36" transform="translate(1329.46 3382.91) rotate(180)"/><rect class="g" x="649.46" y="1682.5" width="36.62" height="17.9" rx="5.36" transform="translate(1335.53 3382.91) rotate(180)"/><path class="aq" d="M643.16,1757.35h65.66a1.45,1.45,0,0,1,1.45,1.45v1.33a4.37,4.37,0,0,1-4.37,4.37H643.16a1.45,1.45,0,0,1-1.45-1.45v-4.25A1.45,1.45,0,0,1,643.16,1757.35Z" transform="translate(1351.99 3521.85) rotate(180)"/><path class="ab" d="M682.25,1697.08c3.38-1.26,4.24,35.45,4.24,35.45,3.14,2.12,12.9,8.81,15,9.86.86.43,3.16.87,4,1.25a9.46,9.46,0,0,1,2.06,1.1,42,42,0,0,1,3.44,4.9c.17.73.68,2.62.17,3s-1.47-2.78-1.47-2.78l-.69-1.19c.54,2,2,5.11,1.3,5.5s-1.9-2.6-2.8-4.68c.63,2,1,5.19.42,5.3s-.93-3.55-2.54-5.49c-.6-.72-1.79-.42-2.44-.69a4.83,4.83,0,0,1-1.59-.83l-1.83-1.93a24.7,24.7,0,0,0-2.54-1.06c-1-.34-2.4-1-3.68-1.41-7.4-2.27-9.25-2.79-11.52-3.17s-3.35-6.41-3.68-15.8C677.79,1714,676,1699.42,682.25,1697.08Z"/><path class="w" d="M724.34,1798.1s.77,3,3.2,3.75,9.23-1.23,10.54-.81a2.93,2.93,0,0,1,1.74,1.21L723.27,1812l-2.88-5-1.45-4Z"/><path class="z" d="M729.06,1802s-3.13,4.3-5.77,4.56-2.75,0-3.11.69,2.31,5.46,2.31,5.46l18.63-10.9c1.26-.82,1.32-2.16-.22-2.31a17.65,17.65,0,0,0-2.73.06C736.23,1799.68,729.06,1802,729.06,1802Z"/><path class="n" d="M662.56,1736.15c1.76-1.38,20.56,4,20.56,4s23.69,3.49,28.28,7.72c1.26,1.16,13.32,47.22,15.46,51.43l-7.92,5s-13-24-16.13-29.81a67.52,67.52,0,0,1-5.48-14.39c-9.39,1.42-13.43-2.35-30.83-9C658.66,1748.16,660.81,1737.52,662.56,1736.15Z"/><path class="w" d="M704.35,1800.6s-.16,3.07,1.92,4.54,9.17,1.6,10.3,2.4a2.94,2.94,0,0,1,1.29,1.67l-18.71,4.29-1.24-5.64-.18-4.24Z"/><path class="z" d="M707.67,1805.78s-4.28,3.16-6.88,2.61-2.61-.88-3.17-.28.56,5.9.56,5.9l21-4.78c1.45-.41,1.91-1.67.49-2.27a17.76,17.76,0,0,0-2.62-.77C715.21,1805.68,707.67,1805.78,707.67,1805.78Z"/><path class="z" d="M652.75,1742.32c2.08-.78,21.26-3.34,21.26-3.34s26.88.2,30,5.62c.85,1.49,1.61,53.26,2.39,57.91l-9.07,2.41s-7.61-30.92-5.7-49.74c-4.83,1.68-28.06,10.46-37.28,3.14C647.77,1753.11,650.66,1743.1,652.75,1742.32Z"/><path class="n" d="M677.24,1719.36c-.5-10-.43-22.33,5.2-24.44,2.22-.83,6.13,4.16,5.43,24.64A42.22,42.22,0,0,1,677.24,1719.36Z"/><path class="f" d="M670.42,1693a58.1,58.1,0,0,1,12.61,1.79s2.3,19.71-2.08,34.68c-1,3.35.58,11.39.58,11.39l-29.32,1.73s4.64-25.08,3.38-29.2-1.29-18.47-1.29-18.47l6.35-1.09A64,64,0,0,1,670.42,1693Z"/><path class="aa" d="M668.22,1666.64s-3.77-2.81-5.87,1.42a10.46,10.46,0,0,0-1.61-.09,14.07,14.07,0,0,0-2.49,1.3,9,9,0,0,0-4.63,7c-.48,3.32.79,5.88,3,8.47a8.91,8.91,0,0,0,2.19,2c1.06.63,2,.26,3,.58.86.26,1.09,1.14,2.15.91,1.49-.31,3.17-1.86,4.94-1.48s6.06-.77,6.07-.77c5.51-1.5,2.79-11.27,2.08-14.72C676.34,1668,671.62,1665.75,668.22,1666.64Z"/><path class="w" d="M671,1688.59l1.06,3.58.56,2a1.9,1.9,0,0,1-1.68,2.72,6.29,6.29,0,0,1-6.91-3.21l-1-11.09Z"/><path class="n" d="M663.41,1686.18a13.69,13.69,0,0,0,8.69,6l-1.07-3.62-7.93-6Z"/><path class="w" d="M665.76,1671.49a6.14,6.14,0,0,1,8.4,3.4,38.41,38.41,0,0,1,1.23,5.19c.79,4.76-1.23,9.73-3.58,10s-9.31-2-10.53-8.75C660.53,1677.18,662.25,1673.1,665.76,1671.49Z"/><path class="w" d="M663.1,1681.67a1.78,1.78,0,0,1-1.42,2.11,1.86,1.86,0,0,1-2-1.7,1.77,1.77,0,0,1,1.42-2.11A1.89,1.89,0,0,1,663.1,1681.67Z"/><rect class="b" x="639.03" y="1738.65" width="48.73" height="3.57" rx="1.07" transform="translate(1326.8 3480.87) rotate(180)"/><rect class="ao" x="637.4" y="1736.4" width="53.19" height="3.57" rx="1.07" transform="translate(1327.98 3476.36) rotate(180)"/><rect class="an" x="674.61" y="1774.81" width="2.21" height="49.28" transform="translate(-1089.8 1039.47) rotate(-46.13)"/><path class="ar" d="M655.15,1785.17c0,2.58,1.58,4.68,3.53,4.68s3.53-2.1,3.53-4.68-1.58-4.68-3.53-4.68S655.15,1782.58,655.15,1785.17Z"/><path class="ar" d="M642.4,1811.66c-5.31-7.22-8.24-16.78-8.24-26.93s2.93-19.7,8.24-26.92c5.45-7.41,12.77-11.49,20.59-11.49s15.14,4.08,20.6,11.49c5.31,7.22,8.23,16.78,8.23,26.92s-2.92,19.71-8.23,26.93c-5.46,7.41-12.77,11.49-20.6,11.49S647.85,1819.07,642.4,1811.66Zm-4-26.93c0,18.86,11,34.2,24.61,34.2s24.61-15.34,24.61-34.2-11-34.19-24.61-34.19S638.38,1765.88,638.38,1784.73Z"/><rect class="ag" x="690.82" y="1814.82" width="50.84" height="2.35" rx="0.7" transform="translate(1432.48 3631.99) rotate(-180)"/><path class="g" d="M691.2,1816.09h49.19a1.83,1.83,0,0,0,1.84-1.83h0a1.84,1.84,0,0,0-1.84-1.84H691.2a1.84,1.84,0,0,0-1.84,1.84h0A1.84,1.84,0,0,0,691.2,1816.09Z"/><path class="b" d="M672.84,1685l-4.33.7a1.91,1.91,0,0,0,2.28,1.37C673.12,1686.75,672.84,1685,672.84,1685Z"/><path class="ak" d="M634.66,1784.73c0,17.93,10.59,32.52,23.62,32.52s23.62-14.59,23.62-32.52-10.6-32.51-23.62-32.51S634.66,1766.81,634.66,1784.73Z"/><path class="b" d="M613.06,1631.83l4.67-.48a2,2,0,0,1-2,2.06C613.26,1633.73,613.06,1631.83,613.06,1631.83Z"/><path class="v" d="M682.1,1730a21.51,21.51,0,0,1,2.53-3.44,4.82,4.82,0,0,1,1.81-1.06s1.49-.46,1.7-.14a.81.81,0,0,1-.17,1c-.24.2-.86.31-1.09.5a2.37,2.37,0,0,0-.29,1.51c.09.35,4.45-1.18,4.45-1.18s1.23-.5,1.63-.69,1.31-.76,1.31-.76,1.42-.76,1.63-.29c.13.27-1,1.3-2.16,2.12a28.1,28.1,0,0,0-2.66,1.69c.11.36,2.53-.42,2.53-.42a8.16,8.16,0,0,1,1.58-.75c.58-.5,1.75-1,2-.43a11.37,11.37,0,0,1-1.34,1.27s-1,.57-1.48.88a29.64,29.64,0,0,1-2.81,1.23c-.49.27-.25.34-.26.41a14.68,14.68,0,0,0,1.64-.53,9.12,9.12,0,0,0,1.59-.51,13.28,13.28,0,0,1,1.66-.66c1.25-.4,1.28.47.18,1l-1.35.68c-1.81.91-3.64,1.33-3.62,1.55s3.33-.69,3.33-.69,1.93,0,.3.82a14.91,14.91,0,0,1-3.6,1.32,14.13,14.13,0,0,1-3.91.82c-1.29,0-3.15-.1-4-.14Z"/><path class="w" d="M650.28,1716.58l8.9.41s.28,7.51.48,8.37c0,0,16,3.81,22.44,4.63l1.16,5.14c-1.26-.13-2.3-.33-2.92-.36-1.21-.07-20.59-.9-20.59-.9s-7.72-.67-8.3-2S650.28,1716.58,650.28,1716.58Z"/><path class="n" d="M649,1719.41c-.49-10-.42-22.33,5.2-24.44,2.22-.83,6.14,4.16,5.43,24.64A42.22,42.22,0,0,1,649,1719.41Z"/><path class="w" d="M586.19,1671.7l10,5.3-1.49,5.76a186.19,186.19,0,0,0,19.95,7.08s1.24.32,2.85.61l4.4.79a12.59,12.59,0,0,0,3.5.06,10.28,10.28,0,0,1,3.38,0c.44.17,1.67.6,2.32.82s1.42.47,1.75.63a3.56,3.56,0,0,0,1.07.14.59.59,0,0,1,.37,1,2.61,2.61,0,0,1-1.57.33c-1.27,0-3.16-.74-3.15-.55a39.5,39.5,0,0,0,2.9,2.71,41.87,41.87,0,0,1,3.71,3.59c.42.7,0,1.07-.41,1s-4.82-3.41-4.82-3.41-.57-.42-.54,0,4.05,3.39,4.57,4,.59,1.17-.12,1.23c-.88.06-5-3.42-5-3.42s-.52-.43-.61-.15,3.37,2.78,3.57,3.16a.56.56,0,0,1-.64.84c-.78-.11-4.41-3.24-4.41-3.24s-.34-.16-.32,0,2.81,2.57,2.91,3a.39.39,0,0,1-.29.49c-.74.34-3.15-2.32-4.61-3.19s-2.7-2.54-4.57-3.38a19.57,19.57,0,0,0-4.94-1.09l-4-.35h0c-13.09-1.23-30.41-3.26-29.66-7.55C582.67,1685.75,584.9,1676.25,586.19,1671.7Z"/><path class="ad" d="M597.52,1645.09s-3.87.91-7.88,5.5c-3.64,4.16-5.93,27.51-5.93,27.51l12.57,2.07,1-11.29,3.35-5.17Z"/><path class="w" d="M2319.61,1690.71c-.15-.87,4-.86,4.33-1.66s-4.91-1.76-5-2.52c-.12-1.41,5.83.7,5.82,0s-6-3.13-5.18-4.1,6,3.22,6.28,2.51-5.12-3.46-4.74-5.06c.2-.85,8.65,5.89,9.81,5.61s-.39-4.72.57-5.17,2.17,8.24,2.71,8.63,12.59,8,16.88,9.94c.8-1.41,6.48-8.81,7.2-10.15,2.21,2.22,6.05,1.36,8.37,3.44-2.68,4.39-10.49,17.54-11.9,17.91-4.29,1.13-20.48-12.84-23.19-15.56s-4.59-2.3-6.56-3.35S2319.75,1691.58,2319.61,1690.71Z"/><path class="ad" d="M2355.62,1691.32s6.07-16.36,9.88-20.2,12-3.8,14.42.46-13.28,24-13.28,24Z"/><path class="w" d="M2377,1680.39c-6.18-.13-5.48-12.08-5.48-12.08a12.13,12.13,0,0,0-1.35.18,12.13,12.13,0,0,1,1.35-.18,5.17,5.17,0,0,0,4.64-4.35,17.46,17.46,0,0,0,.27-4.88c-.47-2.93,7.58-1,7.58-1l1.06,7a4.94,4.94,0,0,0,3.83,4.1S2383.18,1680.53,2377,1680.39Z"/><path class="ab" d="M2406.63,1819.13s2.23,2.18,2.28,3,.2,9.36-.71,10.16-3.58,1.37-2.72,2.27c.65.68,5.64.53,8.94.35,1-.05,2.18-7.78,2.56-8.91.55-1.65,1.9-5.37,1.4-6.52a9.62,9.62,0,0,0-3.08-2.78,15.22,15.22,0,0,1-3.41-3.65Z"/><path class="w" d="M2383.58,1824.2l2,5.66c.15.9.73,3.1.73,3.92,0,3-13.73-2.59-10.65-4a3.24,3.24,0,0,0,1.24-2.14,7.2,7.2,0,0,0-1.15-3.61Z"/><path class="f" d="M2362.05,1719.1s-2.44,9.81-2.44,10c0,16.36-1.79,48.64-1.18,51.72,1.5,7.5,17.65,45.79,17.65,45.79l8.73-1-6-41.06,8.32-28.28-3.55-31.42Z"/><path class="aa" d="M2404,1726.4l-3.41,37,14,52.26s-2.4,5.62-5.94,6.4l-27.16-39.6-16.86-50.68.59-11.26Z"/><path class="h" d="M2415.19,1816.62s-5.13,14.49-7.13,15.19c-.54.19-3.09.66-3.58,1.79a5.16,5.16,0,0,0,0,1.49h10.69s1.35-6.39,1.89-9.19c0,0,2.83-6.86,2.51-7.48S2415.19,1816.62,2415.19,1816.62Z"/><path class="h" d="M2387.09,1834.79l-1.57-5s-3.3,1.4-4.95,1.17a49,49,0,0,1-4.88-1.17c-6.58,2.18-12,3.24-11,5h22.4Z"/><path class="as" d="M2376.43,1659.08c-.47-2.93,7.58-1,7.58-1l.13.86a4.66,4.66,0,0,1-.87,1.45,10.61,10.61,0,0,1-7.05,3.2A16,16,0,0,0,2376.43,1659.08Z"/><path class="w" d="M2385.33,1643.39c.23-.08,2.09,13.07-.95,16.34s-9.83,3.35-12,.78c-2.34-2.85-1.58-15.9,3.13-19.27S2385.33,1643.39,2385.33,1643.39Z"/><path class="l" d="M2377.35,1634.88a13,13,0,0,1,6.87,3.93c1.66.19,3.9,1.11,6.22,5a9.66,9.66,0,0,1-2.57,12.57c-3.32,2.58-3.28,5.56-3.28,5.56l-.52-1.54a8.62,8.62,0,0,1-.42-3.63,6.91,6.91,0,0,1,.54-2.18c.8-1.72-1.72-2.87-2.42-4.3-.55-1.1-.57-3.63-1.43-5.45l-1-1.39s-2.36-1.84-4.66-1.32S2372.68,1633.92,2377.35,1634.88Z"/><path class="w" d="M2381.92,1652.38c0,1.45.63,2.64,1.47,2.65s1.53-1.15,1.56-2.6-.64-2.64-1.47-2.65S2382,1650.93,2381.92,1652.38Z"/><path class="b" d="M2372.59,1656.86l3,.46a1.34,1.34,0,0,0-1.22-1.4C2372.78,1655.62,2372.59,1656.86,2372.59,1656.86Z"/><path class="aq" d="M2366.66,1673.55a21.55,21.55,0,0,1,3.23-5,8.32,8.32,0,0,1,1.63-.26s-.7,12,5.48,12.08,11.9-11.25,11.9-11.25c1.56.34,3.31.75,4.38,1.06,0,0,5.4,1,6.87,9.1s4.19,38.45,4.4,44.74c.15,4.57-6.84,8.57-16.55,10.33a31.07,31.07,0,0,1-9,.93q-1.38,0-2.79,0c-10.76-.13-14.6-3.19-15.93-5l-.68-.31s0-.27.07-.75c0-.14-.07-.22-.07-.22S2351.72,1699.29,2366.66,1673.55Z"/><path class="w" d="M2391.5,1688.54s13.22,18.63,16.35,23,11.73,21.71,12,22.4-4.31,9.26-3.11,9.5,2.14-4.51,3.43-4,5.82,11.67,6.49,11.08c1.25-1.1-2.51-6.93-1.83-7.34s3.37,6.45,4.75,6.19-3.14-6.25-2.79-6.81,5,5.07,5.67,3.8c.37-.69-4.26-4.9-3.46-5.35s4.82,2.24,5.16,1.41-3.68-1.8-5-4-3.42-3-4.56-7.08-3.88-21.15-8.7-28.34-14.65-20.71-14.65-20.71Z"/><path class="ad" d="M2412.86,1695.38l-12.88,8.67s-7.26-10.84-11.16-14.69c-4.88-4.84,1.78-19.65,4.93-18.81C2400.78,1672.43,2412.86,1695.38,2412.86,1695.38Z"/><path class="aa" d="M1810,1691l.63.56a.75.75,0,0,0,1.07,0l11-12.17a.77.77,0,0,0-.08-1.07l-.63-.56a.77.77,0,0,0-1.07,0l-11,12.17A.76.76,0,0,0,1810,1691Z"/><path class="w" d="M1772.62,1681.06c1.47-1.2,12.88,3.82,12.73,5.57s8,18.7,8,18.7l14-11.21h0c.12-.41,1.45-4.77,1.51-5.55s2.44-2.25,3.54-2-.94,1.6-1.08,1.85c-.36.69,1,.95,1,.95s4.05-2.22,4.13-3.54.92-4,1.8-3.48c.45.3.44,2.25.3,3.17.26-1,.63-2.23,1-2.35.65-.22,1,.62.86,1s-1.18,4.87-1.5,5.37-6.85,5.77-7.79,6.92c0,0-18.11,20.78-19.4,21.33s-5.17-6.69-9-11.44S1768,1684.82,1772.62,1681.06Z"/><path class="ab" d="M1736.06,1833.87s-2.49,2.43-2.55,3.33-.22,10.48.8,11.37,4,1.53,3,2.54c-.72.76-6.3.6-10,.39-1.08-.06-2.44-8.7-2.86-10-.62-1.85-2.13-6-1.57-7.29a10.86,10.86,0,0,1,3.45-3.12,16.82,16.82,0,0,0,3.81-4.08Z"/><path class="w" d="M1761.85,1839.54s-2.23,6.32-2.23,6.34a44,44,0,0,0-.82,4.38c0,3.41,15.36-2.9,11.92-4.42a3.62,3.62,0,0,1-1.39-2.39,8,8,0,0,1,1.29-4Z"/><path class="f" d="M1785.94,1722s1.12,11.32,1.12,11.49c0,18.31,3.62,54.08,2.93,57.53-1.68,8.4-19.74,51.24-19.74,51.24l-9.77-1.18,12.73-51.29-4.69-20.64-6.62-40.81Z"/><path class="aa" d="M1753.17,1732l-1.85,10.73-5,44.16L1727.22,1830s2.68,6.28,6.65,7.16l30.38-44.31,18.87-56.7-.66-12.6Z"/><path class="i" d="M1789.84,1695l-13.54,1.39s-.62-11.14-.62-16.45c0-6.44.54-14.75,1.32-14.57a11.74,11.74,0,0,1,6.85,4.12C1789.89,1677.8,1789.84,1695,1789.84,1695Z"/><path class="n" d="M1783.18,1678.79c.29,2,5.49,55.39,5.49,55.39-24.65,12-38.25,2.13-38.25,2.13s.8-37.51-.16-42.62c-.64-3.38-1.44-25.83.74-26.46a54.71,54.71,0,0,1,9.51-2c3-.32,14.59-.5,16.67.2A26.58,26.58,0,0,1,1783.18,1678.79Z"/><path class="u" d="M1726.49,1831.06s5.73,16.21,8,17c.6.2,3.46.73,4,2a5.6,5.6,0,0,1,0,1.66h-12s-1.51-7.14-2.11-10.28c0,0-3.17-7.67-2.82-8.36S1726.49,1831.06,1726.49,1831.06Z"/><path class="u" d="M1757.93,1851.38l1.76-5.57s3.69,1.57,5.54,1.31,5.45-1.31,5.45-1.31c7.37,2.43,13.41,3.62,12.31,5.57h-25.06Z"/><path class="w" d="M1791.74,1717.79l.37-.28c-.44-5.24-.36-10.31,1.28-12l-.78-1.64c-1.89,1.47-2.79,5.38-2.44,11.73a10.31,10.31,0,0,0,.25,1.32C1791,1717.51,1791.47,1717.9,1791.74,1717.79Z"/><path class="v" d="M1726,1734.75a1.29,1.29,0,0,1,0-.34c.36-3.7,3.42-34.77,3.94-36.09s14.19-20.9,14.19-20.9l6.75,9.23-13.2,17.67c-.3,1.12-5.06,22.1-5.06,22.1s-1,3.82-1.42,6.11c.2.55.4,1.07.57,1.5a14,14,0,0,0,1.42,2.29,16.09,16.09,0,0,1,1.69,3c.14.54.39,1.66.53,2.34s.34,1.47.38,1.83a3.73,3.73,0,0,0,.42,1,.59.59,0,0,1-.69.85c-.48-.16-.86-.78-1.09-1.17-.65-1.1-1-3.1-1.15-3a38.3,38.3,0,0,0-.83,3.88,42.59,42.59,0,0,1-1.15,5c-.39.72-.9.6-1,.15s.42-5.91.42-5.91.07-.7-.24-.48-.81,5.23-1,6-.7,1.12-1.12.53.37-6,.37-6,.09-.67-.19-.61-.64,4.33-.86,4.7a.56.56,0,0,1-1.05-.12c-.31-.72.5-5.46.5-5.46s0-.37-.22-.25-.74,3.75-1.1,4.08a.4.4,0,0,1-.57,0c-.67-.46.36-3.9.35-5.61s.78-3.64.54-5.67C1726.07,1735.26,1726,1735,1726,1734.75Z"/><path class="n" d="M1733.41,1689.9l11.72,7.9s6.61-9.87,10.16-13.38c4.45-4.4-1.62-17.89-4.48-17.13C1744.4,1669,1733.41,1689.9,1733.41,1689.9Z"/><path class="w" d="M1761.37,1653.66l-1.75,11.6s6.41,13.81,10.23,12.61c3.21-1,1.23-13.22,1.23-13.22s-1.74-6.57-1.22-9.85S1761.37,1653.66,1761.37,1653.66Z"/><path class="n" d="M1769.86,1654.8c.53-3.29-8.49-1.14-8.49-1.14l-.14,1a5.26,5.26,0,0,0,1,1.62,11.85,11.85,0,0,0,7.87,3.57A18.2,18.2,0,0,1,1769.86,1654.8Z"/><path class="w" d="M1759.89,1637.24c-.25-.09-2,13.22,1.35,16.88s10,4.86,12.37,2c2.62-3.19,2.49-17.49-2.78-21.25S1759.89,1637.24,1759.89,1637.24Z"/><path class="l" d="M1768.82,1627.72a14.65,14.65,0,0,0-7.68,4.39c-1.85.22-4.37,1.25-7,5.56-3.2,5.31-.84,11.19,2.88,14.07s3.66,6.22,3.66,6.22l.59-1.73a9.64,9.64,0,0,0,.47-4.06,8.31,8.31,0,0,0-.6-2.44c-.9-1.92,1.92-3.2,2.7-4.8.61-1.24.64-4.06,1.6-6.1l1.14-1.56s2.64-2.06,5.22-1.47S1774.05,1626.65,1768.82,1627.72Z"/><path class="w" d="M1763.71,1647.29c0,1.63-.71,3-1.64,3s-1.71-1.28-1.74-2.91.71-2.95,1.64-3S1763.68,1645.67,1763.71,1647.29Z"/><path class="b" d="M1769.22,1651.05l5.11-.27a2.25,2.25,0,0,1-2.26,2.14C1769.33,1653.14,1769.22,1651.05,1769.22,1651.05Z"/><path class="w" d="M1900.65,1682.18s10.75,23.59,13,28,6.52,17.9,6.71,18.57-5.42,8.21-4.36,8.6,2.55-3.81,3.67-3.16,3.76,11.43,4.45,11c1.3-.82-1.36-6.66-.69-6.93s2.22,6.34,3.52,6.3-2-6.14-1.64-6.6,3.89,5.32,4.67,4.26c.43-.57-3.23-5.06-2.45-5.35s4.11,2.71,4.53,2-3.12-2.15-4.06-4.3-2.72-3.24-3.22-7.08-.7-17.57-4.14-24.79-11-23.21-11-23.21Z"/><path class="aa" d="M1904.07,1655.92a35.32,35.32,0,0,0-3.21-17c-2.23-4.66-7.75-7.31-12.78-7.31-16,0-18,21.19-28.19,29.37-3.11,2.5-6.59,4.53-9.53,7.23-10.86,10-6,28.38,4,37.11,6.92,6.05,17.8,9.49,26.33,4.76a26.92,26.92,0,0,0,10.24-11.08c3.42-6.39,5.62-13.76,8-20.57C1901.58,1671.2,1903.75,1663.65,1904.07,1655.92Z"/><path class="w" d="M1847,1633.27c.74-.53,2.61,3.27,3.5,3.24s-.62-5.33.06-5.74c1.24-.75,2,5.69,2.61,5.38s.13-7,1.41-6.64-.23,7,.55,6.93.86-6.29,2.5-6.67c.88-.2-1.48,10.66-.68,11.6s4.16-2.52,5-1.84-6.61,5.76-6.72,6.44-1.66,15.26-1.46,20.08c1.66.1,11.07,2,12.63,2-1,3,1.51,6.2.66,9.29-5.27-.47-21-1.67-21.94-2.8-3-3.44,2.49-24.73,3.76-28.47s0-5.28.09-7.57S1846.21,1633.81,1847,1633.27Z"/><path class="ab" d="M1871.39,1851a37.56,37.56,0,0,1,6.65-3.69c.28-.13,1.29-.77,1.65-1a12.5,12.5,0,0,0,2.64-2.34c.76-.85,1.13-3.57,1.3-5.74-.44-4.84-7.46-82.54-8.94-91-1.53-8.68.8-21.92.8-21.92l5.42-2.05L1891.2,1759l-.81,27.14s2.42,7.83,2.72,12.5-3.5,42.62-3.5,42.62h0a19.75,19.75,0,0,0,.21,3.35c.28,1.42,1.83,4.35,1.12,5.68a3.54,3.54,0,0,1-1.53,1.67l-18.49.3C1869.92,1852.29,1870.58,1851.64,1871.39,1851Z"/><path class="ai" d="M1899.45,1722.61s6.42,9.68,8,17.7-1.12,32.64,1.82,43.15c1.59,5.68,7.62,14.46,8.54,21.81s4.11,28.55,4.11,28.55h0c.48,2.22,1.23,5,2.22,6.26a18.21,18.21,0,0,1,2.41,3.19c1.13,2.2.51,5.48-.32,7.29-.43.93,0,.93-.94,1.22a5.93,5.93,0,0,1-7.13-3.35,17.09,17.09,0,0,1-1.4-6.16,28.19,28.19,0,0,0-1-6.52h0l-20.51-50.33L1880.33,1742l-3.8-22.37Z"/><path class="aa" d="M1917.56,1847a9.08,9.08,0,0,0,8.93-3.74c1.13,2.21,1.68,5.51.85,7.32-.73,1.6-2.87,1.55-4.55,1.61a4.38,4.38,0,0,1-4-2.47A14.69,14.69,0,0,1,1917.56,1847Z"/><path class="aa" d="M1879.69,1846.35a16.68,16.68,0,0,0,10.53-.41c.52,1.48,1.21,3.34.84,4.41-.45,1.31-1.09,1.61-1.65,1.62-4.47.12-16.36.28-19.76.32a.55.55,0,0,1-.43-.91C1870.06,1850.37,1879.33,1846.58,1879.69,1846.35Z"/><path class="aa" d="M1895.29,1784.47l-1.16.07h-.06l-1.15.07h-.07l-1.15.06h-.06l-1.18,0a75.93,75.93,0,0,1-13.27-.5c-1.77-17.72-2.43-33.9-3.08-37.48-1.59-8.68,1.38-22.38,1.38-22.38l-.24-3.26.76-2.07,23.84,3s6.68,9.69,8.27,17.7-1.17,32.65,1.89,43.15C1910,1782.87,1903.2,1783.93,1895.29,1784.47Z"/><path class="at" d="M1862.82,1666.74s17.85-1.87,23.12-.11,9,9.29,6.15,13.5-28.14-1.3-28.14-1.3Z"/><path class="u" d="M1894.3,1665.08s8.83-.55,12.32,3.15-7.74,33-8.38,37.68,3.24,17.23,3.24,17.23-20.74,4-26.67.24c0,0-1.09-34.19-.45-37.55s6.38-16.72,7.65-18.06S1894.3,1665.08,1894.3,1665.08Z"/><path class="w" d="M1891.36,1653.61l.13.68c.39,2.07,1.91,8.91,2.93,10.79,1.24,2.28-4.23,9.53-9.5,8.64-1.57-.26,1.32-6.66,1.19-7.34-.27-1.3-.63-3.07-1-4.88l-.62-3-1-5Z"/><path class="au" d="M1891.49,1654.29l-.13-.68-7.89-.19,1,5,.62,3a7.53,7.53,0,0,0,3.77-1.83,9.71,9.71,0,0,0,2.85-4.13Q1891.58,1654.79,1891.49,1654.29Z"/><path class="w" d="M1886.05,1636.17a7.21,7.21,0,0,1,6,2.52c2.34,2.93,4.85,12-.94,16.92s-11.53-.65-12.37-6.56S1877.61,1636,1886.05,1636.17Z"/><path class="w" d="M1877.07,1649c.69,1.31,1.85,2,2.59,1.62s.78-1.81.09-3.12-1.85-2-2.59-1.62S1876.38,1647.65,1877.07,1649Z"/><path class="aa" d="M1885.63,1635.2s5,8.62,8.53,9,4,5,4,5-1.28-10.55-4.8-12.59A13.39,13.39,0,0,0,1885.63,1635.2Z"/><path class="w" d="M1893.23,1646.39c-.29,1.53.29,2.94,1.3,3.14s2.06-.88,2.35-2.41-.3-2.94-1.3-3.14S1893.52,1644.86,1893.23,1646.39Z"/><path class="b" d="M1888.34,1650.38l-5.08.72a2.25,2.25,0,0,0,2.64,1.66C1888.63,1652.45,1888.34,1650.38,1888.34,1650.38Z"/><path class="u" d="M1906.24,1698.86s-10-14.92-10.87-20.4,4-12.27,9.08-11.74,13.64,25.49,13.64,25.49Z"/></g></svg>