<svg xmlns="http://www.w3.org/2000/svg" viewBox="0 0 750 500"><defs><style>.a{fill:#7ed6df;}.b,.y{fill:#dff9fb;}.c{fill:#22a6b3;}.d,.j,.q,.t{fill:#130f40;}.d{opacity:0.1;}.e{fill:#4834d4;}.f,.r,.v,.z{opacity:0.5;}.g{fill:#686de0;}.h,.j,.s{opacity:0.2;}.af,.i,.s,.v,.x{fill:#fff;}.ac,.ad,.k,.l{fill:none;}.k,.l{stroke:#7ed6df;stroke-miterlimit:10;}.l{stroke-width:0.98px;}.m{fill:#f6e58d;}.n{fill:#ffc2bd;}.o{fill:#badc58;}.p{fill:#ffbe76;}.aa,.r{fill:#ff7979;}.t{opacity:0.15;}.u{fill:#eb4d4b;}.w,.x,.y{opacity:0.3;}.ab,.z{fill:#6ab04c;}.ac{stroke:#badc58;stroke-width:0.9px;}.ac,.ad{stroke-linecap:round;stroke-linejoin:round;}.ad{stroke:#6ab04c;}.ae{fill:#262743;}.af{opacity:0.4;}</style></defs><rect class="a" width="750" height="500"/><rect class="b" y="335.7" width="750" height="164.3"/><rect class="c" y="325.77" width="750" height="9.93"/><rect class="d" x="456.47" y="338.37" width="293.53" height="34.48"/><path class="e" d="M270.5,47.49h-7V0h-5.13V47.49H123.45V0h-5.13V47.49h-3.95A28.54,28.54,0,0,0,85.83,76H299A28.54,28.54,0,0,0,270.5,47.49Z"/><g class="f"><path class="b" d="M275.16,56H106.5a1.5,1.5,0,0,1,0-3H275.16a1.5,1.5,0,0,1,0,3Z"/></g><circle class="g" cx="403.22" cy="75.92" r="35.91"/><g class="h"><path d="M403.22,111.83a35.9,35.9,0,0,1-35.87-34.41c0,.5,0,1,0,1.5,0,19.84,16.08,36.91,35.91,36.91s35.91-17.07,35.91-36.91c0-.5,0-1,0-1.5A35.9,35.9,0,0,1,403.22,111.83Z"/></g><circle class="i" cx="403.22" cy="75.92" r="31.38"/><path class="a" d="M404.49,50.2a1.28,1.28,0,1,0-1.27,1.28A1.27,1.27,0,0,0,404.49,50.2Z"/><path class="a" d="M404.49,101.88a1.28,1.28,0,1,0-1.27,1.27A1.27,1.27,0,0,0,404.49,101.88Z"/><path class="a" d="M430.33,76a1.28,1.28,0,1,0-1.27,1.27A1.27,1.27,0,0,0,430.33,76Z"/><path class="a" d="M378.66,76a1.28,1.28,0,1,0-1.28,1.27A1.27,1.27,0,0,0,378.66,76Z"/><path class="a" d="M415.39,53.22a1.28,1.28,0,1,0,2.19,1.31,1.23,1.23,0,0,0,.14-1,1.27,1.27,0,0,0-1.23-1,1.1,1.1,0,0,0-.31,0A1.29,1.29,0,0,0,415.39,53.22Z"/><path class="a" d="M388.86,97.55a1.28,1.28,0,1,0,2.19,1.31h0a1.29,1.29,0,0,0,.14-1,1.33,1.33,0,0,0-.58-.79,1.31,1.31,0,0,0-.66-.18A1.29,1.29,0,0,0,388.86,97.55Z"/><path class="a" d="M425.54,61.76a1.33,1.33,0,0,0-.64.17,1.28,1.28,0,1,0,1.74.46A1.27,1.27,0,0,0,425.54,61.76Z"/><path class="a" d="M381.22,87.81a1.24,1.24,0,0,0-.33,0,1.33,1.33,0,0,0-.64.17,1.29,1.29,0,1,0,1-.13Z"/><path class="a" d="M426.69,86.92a1.26,1.26,0,0,0-.59-.15,1.21,1.21,0,0,0-.38.06,1.23,1.23,0,0,0-.75.63,1.27,1.27,0,1,0,2.34.21A1.25,1.25,0,0,0,426.69,86.92Z"/><path class="a" d="M379.75,65.16a1.28,1.28,0,1,0-.53-1.72,1.22,1.22,0,0,0-.09,1A1.25,1.25,0,0,0,379.75,65.16Z"/><path class="a" d="M417.2,98.85a1.26,1.26,0,0,0,1.5-1,1.27,1.27,0,0,0-1.25-1.53,1.22,1.22,0,0,0-.7.21,1.26,1.26,0,0,0-.55.81,1.27,1.27,0,0,0,.19,1A1.25,1.25,0,0,0,417.2,98.85Z"/><path class="a" d="M388.73,55.73A1.28,1.28,0,1,0,389,53.2a1.26,1.26,0,0,0-1.24,1,1.24,1.24,0,0,0,.18,1A1.27,1.27,0,0,0,388.73,55.73Z"/><path class="c" d="M403.32,62.41a1.51,1.51,0,0,1,1.49,1.52L404.73,75,420,83.49a1.5,1.5,0,0,1-1.47,2.62l-16-9a1.49,1.49,0,0,1-.77-1.32l.09-11.94A1.5,1.5,0,0,1,403.32,62.41Z"/><rect class="j" x="608.91" y="83.55" width="107.25" height="82.49"/><rect class="b" x="608.91" y="80.55" width="107.25" height="82.49"/><rect class="j" x="488.25" y="83.55" width="107.25" height="82.49"/><rect class="b" x="488.25" y="80.55" width="107.25" height="82.49"/><rect class="a" x="498.07" y="90.71" width="26.79" height="14.59"/><rect class="c" x="498.07" y="110.58" width="26.79" height="20.25"/><rect class="a" x="529.9" y="110.58" width="55.57" height="20.25"/><line class="k" x1="529.9" y1="90.71" x2="585.47" y2="90.71"/><line class="k" x1="529.9" y1="95.59" x2="585.47" y2="95.59"/><line class="k" x1="529.9" y1="100.47" x2="585.47" y2="100.47"/><line class="k" x1="529.9" y1="105.34" x2="555.81" y2="105.34"/><rect class="a" x="498.07" y="135.25" width="4.52" height="4.52" rx="2.26"/><rect class="a" x="498.07" y="142.43" width="4.52" height="4.52" rx="2.26"/><rect class="a" x="498.07" y="149.6" width="4.52" height="4.52" rx="2.26"/><line class="k" x1="505.44" y1="137.51" x2="585.47" y2="137.51"/><line class="k" x1="505.44" y1="144.69" x2="585.47" y2="144.69"/><line class="k" x1="505.44" y1="151.86" x2="585.47" y2="151.86"/><rect class="a" x="618" y="90.71" width="28.42" height="63.41"/><rect class="l" x="651.35" y="122.42" width="25" height="31.71"/><rect class="a" x="681.77" y="121.79" width="25.49" height="32.34"/><line class="k" x1="651.1" y1="90.69" x2="706.67" y2="90.69"/><line class="k" x1="651.1" y1="95.57" x2="706.67" y2="95.57"/><line class="k" x1="651.1" y1="100.44" x2="706.67" y2="100.44"/><line class="k" x1="651.1" y1="110.66" x2="706.67" y2="110.66"/><line class="k" x1="651.1" y1="105.32" x2="706.67" y2="105.32"/><line class="k" x1="651.6" y1="116.58" x2="677.51" y2="116.58"/><rect class="c" x="32.93" y="92.83" width="152.6" height="82.49"/><rect class="b" x="37.34" y="96.84" width="143.8" height="74.47"/><rect class="m" x="51.29" y="137.42" width="18.98" height="18.98"/><circle class="e" cx="60.78" cy="139.56" r="1.04"/><rect class="n" x="72.8" y="112.8" width="18.98" height="18.98" transform="translate(-40.34 40.5) rotate(-22.36)"/><circle class="e" cx="79.49" cy="115.49" r="1.04"/><rect class="m" x="148.05" y="130.07" width="18.98" height="18.98" transform="translate(-41.25 70.43) rotate(-22.36)"/><circle class="e" cx="154.74" cy="132.76" r="1.04"/><rect class="o" x="103.45" y="140.7" width="18.98" height="18.98" transform="translate(35.09 -20.84) rotate(12.47)"/><circle class="e" cx="114.53" cy="143.01" r="1.04"/><rect class="m" x="647.24" y="226.63" width="75.74" height="85.42" rx="15.07"/><rect class="p" x="647.24" y="304.48" width="75.74" height="15.15" rx="5.78"/><rect class="p" x="722.26" y="282.61" width="11.69" height="55.7"/><path class="j" d="M722.26,303v35.3H734V301.46C732.06,307.31,725.27,306.7,722.26,303Z"/><rect class="j" x="722.26" y="282.61" width="11.69" height="3.1"/><rect class="p" x="719.09" y="271.65" width="18.03" height="10.96" rx="3.07"/><rect class="q" x="725.27" y="337.77" width="5.67" height="21.2"/><rect class="m" x="560.54" y="226.63" width="75.74" height="85.42" rx="15.07"/><rect class="p" x="560.54" y="304.48" width="75.74" height="15.15" rx="5.78"/><rect class="p" x="635.56" y="282.61" width="11.69" height="55.7"/><path class="j" d="M635.56,303v35.3h11.68V301.46C645.35,307.31,638.57,306.7,635.56,303Z"/><rect class="j" x="635.56" y="282.61" width="11.69" height="3.1"/><rect class="p" x="632.38" y="271.65" width="18.03" height="10.96" rx="3.07"/><rect class="q" x="638.57" y="337.77" width="5.67" height="21.2"/><rect class="m" x="474.03" y="226.63" width="75.74" height="85.42" rx="15.07"/><rect class="p" x="474.03" y="304.48" width="75.74" height="15.15" rx="5.78"/><rect class="p" x="462.35" y="282.61" width="11.69" height="55.7"/><rect class="p" x="549.05" y="282.61" width="11.69" height="55.7"/><path class="j" d="M549.05,303v35.3h11.69V301.46C558.85,307.31,552.07,306.7,549.05,303Z"/><rect class="j" x="549.05" y="282.61" width="11.69" height="3.1"/><path class="j" d="M462.55,303v35.3h11.69V301.46C472.35,307.31,465.56,306.7,462.55,303Z"/><rect class="j" x="462.55" y="282.61" width="11.69" height="3.1"/><rect class="p" x="459.38" y="271.65" width="18.03" height="10.96" rx="3.07"/><rect class="p" x="545.88" y="271.65" width="18.03" height="10.96" rx="3.07"/><rect class="q" x="465.16" y="337.77" width="5.67" height="21.2"/><rect class="q" x="552.07" y="337.77" width="5.67" height="21.2"/><path class="i" d="M253.91,174.87c3.34-.3,9.37,8.86,11.91,20.16,2.14,9.55,4.59,22.32,4.95,23.09l10.68,23.66-9.13,3.41a105.79,105.79,0,0,1-11.92-24C254.1,202.73,251.8,178.48,253.91,174.87Z"/><path class="n" d="M243.23,163.58s-1.85,5.92.87,10.27c3.42,5.46,1.14,12.43-3.42,12.35s-13.09-7.25-9.51-13.69c1.71-3.08,1.24-8.57,1.24-8.57Z"/><path class="r" d="M243.6,172.91c-2-4.21-.37-9.33-.37-9.33l-10.82.36s.42,5-1,8.14C234.16,175.38,241.64,177.14,243.6,172.91Z"/><path class="c" d="M213.17,177.65c3.73-3.66,17.62-5.59,17.62-5.59l9.79,11.19,3.24-10.1,10.09,1.72s3.69,8.5,1.73,21.61c.15,8-3.26,17.14-3,23.73.09,2.77,1.72,13.85,2.5,18.57-12.4,3.75-27,3.28-38.86-1.77,1.52-4.34,6-17.15,2.26-28-1-3-2.61-13.54-2.61-13.54l-7.2,20.83-6.44,25.05s-7-.36-9.84-2.49c0,0,6.35-23.21,7.24-25.45C201.82,208,209.44,181.31,213.17,177.65Z"/><path class="i" d="M257,220.21c-.23-6.59-.21-15.48-.36-23.43,2-13.12-2.72-21.91-2.72-21.91l-6.08-1.19c1.81,22.38-.67,44.76-1.93,67.13a57.68,57.68,0,0,0,10.32-2C255.44,234.06,257.09,223,257,220.21Z"/><path class="i" d="M211.94,177.54c-3.73,3.66-11.44,29.84-13.6,35.26-.88,2.24-7,26.08-7,26.08,2.82,2.12,12,2.49,12,2.49l6.5-24.19,6-18.41s1.3,11.17,1.51,16.83-.73,17.07-2.25,21.41a56.39,56.39,0,0,0,17.26,4c-.29-22.92-.25-46.27-8.31-68.12C219.63,173.89,214,175.49,211.94,177.54Z"/><path class="n" d="M253.41,151.47c-.13-2-1.14-2.53-2.15-2.15a47.81,47.81,0,0,0,.17-5.66c0-3.35-2.18-12.1-13.73-12.06C224,131.66,224,141.88,224,141.88a62.77,62.77,0,0,0,.65,7.74c-1.16-.82-2.55-.53-2.7,1.85-.21,3.35,1.42,6.73,4.81,6.72v0c2.08,5.7,5.58,10.61,10.91,10.6,6.29,0,10-5.15,11.88-10.66C252.28,157.55,253.6,154.5,253.41,151.47Z"/><path class="r" d="M232,141.87c5.76,3.82,15.59,4.64,19.08,9.48a49.79,49.79,0,0,0,.38-7.69c0-3.35-2.18-12.1-13.73-12.06C224,131.66,224,141.88,224,141.88s.23,3.14.89,7.6a7.14,7.14,0,0,1,.66,2.14C226.75,148.23,229.25,145.61,232,141.87Z"/><ellipse class="q" cx="231.64" cy="150.62" rx="1.29" ry="1.64"/><ellipse class="q" cx="244.47" cy="150.62" rx="1.29" ry="1.64"/><path class="q" d="M230.62,150c-.71-.07-1.06-.66-1.33-.49s.77,1.34,1.33,1.43S230.62,150,230.62,150Z"/><path class="q" d="M245.42,150c.72-.07,1.07-.66,1.34-.49s-.77,1.34-1.34,1.43S245.42,150,245.42,150Z"/><path class="q" d="M241.51,147.69c.35.11,4.1-.7,4.53-.64s2.4.92,2.59.94a5.59,5.59,0,0,0-2.5-1.82,13.41,13.41,0,0,0-4.54.58C241.39,146.9,241.19,147.57,241.51,147.69Z"/><path class="q" d="M234.56,147.64c-.33.13-4.11-.53-4.55-.44s-2.35,1-2.54,1a5.72,5.72,0,0,1,2.42-1.92,13.47,13.47,0,0,1,4.56.39C234.66,146.85,234.88,147.51,234.56,147.64Z"/><path class="q" d="M252.94,133.55a18.37,18.37,0,0,0-4.36-4.57,7.48,7.48,0,0,0,.44-2.51c0-4.71-4.46-8.52-10-8.52s-10,3.81-10,8.52a7.4,7.4,0,0,0,.13,1.33c-6.14,3.13-10,12.46-8.5,22.38,1.41,9.64,7.64,11.77,6.89,10.17-.34-.73-.64-1.45-.92-2.16-3.37,0-5-3.38-4.78-6.72.15-2.38,1.54-2.67,2.7-1.85.86,0,1.71-5,7.36-10,5.58,4.77,16.67,2.27,19.29,9.65,1-.38,2,.14,2.15,2.15.19,3-1.13,6.08-3.9,6.63a24.92,24.92,0,0,1-1.55,3.55l-.05.12c-.53,1.18,3-1,6-6.42C257.05,149.74,257.18,139.83,252.94,133.55Z"/><ellipse class="r" cx="224.62" cy="153.66" rx="0.91" ry="2.07" transform="translate(-32.5 64.47) rotate(-15.25)"/><ellipse class="r" cx="250.89" cy="153.66" rx="2.07" ry="0.91" transform="translate(36.66 355.31) rotate(-74.75)"/><path class="i" d="M251.21,148.48c-.33.26-2.56,3.72-3.75,5.6-2.45-1.24-7.39-3.11-9.15-3.06s-7,2.33-9.45,3.87c-1-1.62-3.75-5.89-4.12-6.18s-.49.12-.37.53,2.5,4.8,3.4,6.47c-1.93,2.13-.83,11.65,9.34,12.71,10.33,1.09,12.83-12.56,11.47-13.69,1.07-2,2.91-5.43,3-5.72S251.49,148.25,251.21,148.48Z"/><rect class="q" x="126.9" y="202.83" width="86.05" height="15.12"/><rect class="s" x="256.89" y="120.71" width="119.72" height="96.13"/><path class="s" d="M294.25,120.71c-12.67,8.22-25.31,16.72-37.36,25.89v25c22.85-17.66,46.46-34.36,70.34-50.93Z"/><path class="s" d="M358.64,153.81a197.56,197.56,0,0,0,18-12.54V120.71H359.19c-34.09,24.24-69.45,47.05-102.3,72.67v23.46h14.9C298.91,195.43,327.58,175.06,358.64,153.81Z"/><path class="s" d="M376.62,167c-22,17.16-44.42,33.4-66.64,49.88h66.64Z"/><rect class="d" y="366.97" width="430.81" height="14.2"/><rect class="i" y="229.87" width="421.21" height="142.98"/><rect class="e" y="218.31" width="424.73" height="24.68"/><rect class="t" y="243" width="421.21" height="6"/><path class="g" d="M210.61,347.64a46.28,46.28,0,1,1,46.28-46.28A46.34,46.34,0,0,1,210.61,347.64Zm0-89.56a43.28,43.28,0,1,0,43.28,43.28A43.33,43.33,0,0,0,210.61,258.08Z"/><polygon class="g" points="235.1 290.4 221.57 290.4 221.57 276.87 199.65 276.87 199.65 290.4 186.12 290.4 186.12 312.32 199.65 312.32 199.65 325.85 221.57 325.85 221.57 312.32 235.1 312.32 235.1 290.4"/><path class="g" d="M378.88,218.46H255.39V119.29H378.88Zm-120.49-3H375.88V122.29H258.39Z"/><ellipse class="d" cx="368.14" cy="393.7" rx="47.35" ry="9.43"/><path class="n" d="M352.11,213.35a30.49,30.49,0,0,0-4.4-.32c-1.24-.07-1.12.05-2.07.85a24.09,24.09,0,0,0-3,3c-.44.53-1.48,2.16-1.06,2.71.27.36,1.27.14,1.7,0s.91-1,1.29-1.27c2.79-1.67,4-2.8,6.25-1.67a8.73,8.73,0,0,1,1.5,1,11,11,0,0,1-1.77.26c-1.47.27-2.42-.38-3.23.07-.22.12-.79.79.43,1.6,1.43.94,6.37,1.38,8,.78a25,25,0,0,1,4.81-1.76.78.78,0,0,0,.53-.23.67.67,0,0,0,.09-.44l0-3.75C357.92,214.37,355.08,214.46,352.11,213.35Z"/><path class="r" d="M358,217.25c-3.32.14-6.23-2-8.94-2-2.94,0-5.83,3.84-7.41,3.19-.21.48-.32.94-.13,1.18s1.27.14,1.7,0,.91-1,1.29-1.27c2.79-1.67,4-2.8,6.25-1.67a8.73,8.73,0,0,1,1.5,1,11,11,0,0,1-1.77.26c-1.47.27-2.42-.38-3.23.07-.22.12-.79.79.43,1.6,1.43.94,6.37,1.38,8,.78a25,25,0,0,1,4.81-1.76.78.78,0,0,0,.53-.23.67.67,0,0,0,.09-.44c0-.42,0-.84,0-1.25A3.34,3.34,0,0,1,358,217.25Z"/><path class="m" d="M412.32,215.75c0,9.2-42.4,6.77-47.73,2.26-1.75-1.49.44-5.89,1.61-5.62,6.65,1.51,29.39-.88,29.25-1.47-1.95-8.57-5.93-16.92-8.42-23.73-1.43-3.94-5.08-15.34,6.12-14.45,6.55.52,6.79,11.48,8.93,16.62C405.42,197.37,412.32,207.06,412.32,215.75Z"/><path class="u" d="M412.32,215.75c0,9.2-42.4,6.77-47.73,2.26-1.75-1.49.44-5.89,1.61-5.62,6.65,1.51,29.39-.88,29.25-1.47-1.95-8.57-5.93-16.92-8.42-23.73-1.43-3.94-5.08-15.34,6.12-14.45,6.55.52,6.79,11.48,8.93,16.62C405.42,197.37,412.32,207.06,412.32,215.75Z"/><path class="j" d="M406,209.33a47.39,47.39,0,0,1-7.93-32.81c-1.1-2.09-2.63-3.59-5-3.78-11.2-.89-7.55,10.51-6.12,14.45,2.49,6.81,6.47,15.16,8.42,23.73.14.59-22.6,3-29.25,1.47-1.17-.27-3.36,4.13-1.61,5.62,5.33,4.51,47.73,6.94,47.73-2.26a17.61,17.61,0,0,0-.21-2.59C408.84,213.85,408,212.22,406,209.33Z"/><path class="u" d="M392.48,383.76l-8.93-.19a76.67,76.67,0,0,1-8.1,5.22c-9.08,3.6-9.16,8-7.62,8l22.31-.59a3.94,3.94,0,0,0,3.78-4.65Z"/><path class="u" d="M366.86,384.79l-8.93-.19a76.17,76.17,0,0,1-8.11,5.22c-9.07,3.6-9.15,8-7.61,8l22.31-.59a4,4,0,0,0,3.77-4.66Z"/><path class="q" d="M357.64,238.69c-3.19,18.91-6.18,73.31-5.86,86.16s1.74,61.91,1.74,61.91h14.32l4.63-61,3.95-30.26,2,91.25h15.1s5.37-105.45,5.37-123c0-11.83-4.65-18.3-6.09-24Z"/><path class="u" d="M355.48,173.56c-3.3,2.44-2.05,19.24-2.05,23.34,0,2-5.72,16.13,3.71,16.11,0,0,.22,19.2,0,28.42,16.35.08,22.13-.58,36.36,1.11,4.2-26.13,7.7-47.25-.35-69.8-3.68-1.44-13.48-1.44-22.44-1.37C365.22,171.42,357.14,172.33,355.48,173.56Z"/><path class="j" d="M371.08,209.86c-6.08-10.94-2.05-39-15.6-34.06-3.85,1.41-2.05,17-2.05,21.1,0,2-5.72,16.13,3.71,16.11,0,0,.51,20.3,0,28.42,17.71,0,28.53,0,36.36,1.11,1.56-9.73,3-12.59,3.84-22.51C389,219.57,375.05,217.36,371.08,209.86Z"/><path class="n" d="M286.51,204.35a42.79,42.79,0,0,0-7.67,3.12c-.53.5-2.47,6.95-2.59,9.57,1.86,1.46,2.45-1.16,3.12-2.42s1.95-2.68,3.25-2.09c2.63,2.79,3.34,5.83,5.64,6.75s2.58-.3,5-.62c1.68-.21,5.25-7.19,3.27-7.61a33.7,33.7,0,0,1-3.46-.92C291.15,209.08,288.88,203.75,286.51,204.35Z"/><path class="r" d="M296.57,211.05a33.7,33.7,0,0,1-3.46-.92,3.12,3.12,0,0,1-.45-.32c-1.71,1.79-1.87,5.52-3.61,5.73s-5.09-3.07-6.33-6.49c-2.84,1.14-4.81,3.57-6.25,6.32a12.64,12.64,0,0,0-.22,1.67c1.86,1.46,2.45-1.16,3.12-2.42s1.95-2.68,3.25-2.09c2.63,2.79,3.34,5.83,5.64,6.75s2.58-.3,5-.62C295,218.45,298.55,211.47,296.57,211.05Z"/><path class="u" d="M338,197.77c-2.35,2.91-6.86,10.61-8.44,10.72-8.56.57-25.81,3.49-32.94,2.56-3.53-.46-5.86,5.08-3.46,7.71,10.41.05,20.41,2.29,30.81,2.34,3.1,0,10.08-.32,13.06-1.13,6.53-1.78,11.37-11,15.65-16.22,6.66-8.15,10.53-14.77,9.24-25.22-.25-2.06-2.83-5.08-4.9-5.17C349.64,173,341.42,193.46,338,197.77Z"/><path class="j" d="M337.55,215.75c-4,2.16-20.77,1.21-45.25-1a4.38,4.38,0,0,0,.81,4c10.41.05,20.41,2.29,30.81,2.34,3.1,0,10.08-.32,13.06-1.13,6.53-1.78,11.37-11,15.65-16.22,5.28-6.47,8.8-12,9.39-19.19C356.7,193.47,341.51,213.58,337.55,215.75Z"/><path class="v" d="M355,175.58c-2-.19-9.87,11.17-11.18,15.34s5.81-8.23,7.56-9.9S357.13,175.78,355,175.58Z"/><path class="v" d="M329.89,210.73c-1.2-1.6-14.92.14-18.89,2s10-1.18,12.41-1S331.16,212.44,329.89,210.73Z"/><path class="n" d="M383.94,136.06a10.45,10.45,0,0,0-3.82-3.17,19.35,19.35,0,0,0-4.43-1.06c-6.55-1.26-17.56,2.33-17.56,8.68,0,.55-.16,1.36-.12,2.87s1,3.57,1,5.87c-.65,1.86-2.06,6.22-1.68,6.63a1.19,1.19,0,0,0,.62.29c.7.16,1.4.29,2.1.4a30.82,30.82,0,0,0,2,6.71c1.32,2.88,4.51,2.32,7.58,1.54,6.56-1.68,12.33-4.34,15.51-10.32S388.12,141.38,383.94,136.06Z"/><path class="r" d="M383.94,136.06a10.45,10.45,0,0,0-3.82-3.17,19.35,19.35,0,0,0-4.43-1.06c-6.55-1.26-17.56,2.33-17.56,8.68,0,.54-.14,1.31-.12,2.74.79-.71,1.46-1.64,2.43-2.72,3.28,9.19,12.41,17,22.08,17.6a16.87,16.87,0,0,0,2.6-3.63C388.29,148.52,388.12,141.38,383.94,136.06Z"/><path class="q" d="M364.49,148.46c-.23-.11-.45.34-.95.53a1.13,1.13,0,0,0-1.11-.69,1.44,1.44,0,0,0,.37,2.78,1.23,1.23,0,0,0,.92-1.36C364.18,149.4,364.71,148.57,364.49,148.46Z"/><path class="q" d="M359.47,146.86a.57.57,0,0,1,.2-.37c1.44-1.16,3.29-1.33,5.5-.51a.54.54,0,0,1-.12,1.05.52.52,0,0,1-.25,0c-1.86-.68-3.31-.57-4.44.34a.56.56,0,0,1-.4.12.57.57,0,0,1-.37-.2A.59.59,0,0,1,359.47,146.86Z"/><path class="i" d="M357.48,153c-1.34,2.08.15,4.77,1.37,7,1.09,2,1.77,3.64,3,4.18,2.52,1.14,7.06-1.18,7.06-1.18s1.29-10.32-.54-11.43S358.55,151.36,357.48,153Z"/><path class="q" d="M356.25,141.85c.82,1.59,1.05.81,4.79-4.31,0,7.42,6.11,8.17,6.63,14.41.54,6.54-2.76,39.11,1.94,45a49,49,0,0,0,19.19,0c6.45-1.34,10.89-3.11,10.89-7.26,0-8-7.48-36.73-8.09-44.95-1.05-14.19-11-17-14.9-17.54C367.91,126,354.36,130.12,356.25,141.85Z"/><g class="w"><path class="i" d="M365.2,135.61c-.82-1.23,9.08-5.4,13.8-2.85S366.85,138.09,365.2,135.61Z"/></g><g class="w"><path class="i" d="M361.29,132.19c-1-1.17,9.24-6,14.4-3.8,2.87,1.23-1.45.76-6.06,1.68C366,130.81,362.13,133.24,361.29,132.19Z"/></g><ellipse class="d" cx="641.85" cy="413.25" rx="65.81" ry="12.03"/><path class="q" d="M625.26,156.12c-2.77-2.94-5.21-10.14-4.5-15.7A14.72,14.72,0,0,1,629,129.1c6.62-3.42,23.18-1.81,26.77-.9,8.92,2.24,1.89,13-.93,19.92-2,4.95-22.61,6.93-24.35,9.18C630.48,157.3,628,159.06,625.26,156.12Z"/><path class="n" d="M656.52,180.34c-.68-4.44-7.59-6.15-7.59-6.15L647.49,168s4.39.47,6.9-5.5c2.12-5-.13-19.7-.88-24.12-6,2.88-10.32,2.88-19.62,3.74.64,1.06.83,6.49,1,7.1.59,2.35-2.56,2.78-2.56,2.78a2,2,0,0,0-3.46-.51c-.07.21-.15.42-.22.64.07-.22.15-.43.22-.64a5.26,5.26,0,0,0-.8,3.21,5.44,5.44,0,0,0,5.62,5.76c.79,6.44-1.41,15.54-1.41,15.54s-7.08,7.08-4.21,11.91,7.51,14.44,19.3,11.16S657.36,185.87,656.52,180.34Z"/><path class="r" d="M634.9,154.31c2-1.59,1.31-8.06,3.38-9.51,3.75-2.64,10.08-1,15.59-4.15-.13-.89-.26-1.65-.36-2.23-6,2.88-10.32,2.88-19.62,3.74.64,1.06.83,6.49,1,7.1.46,1.85-1.39,2.51-2.2,2.71A3.69,3.69,0,0,0,634.9,154.31Z"/><path class="r" d="M648.62,172.88,647.49,168s-5.24.05-8.43-1.69-5.39-5.85-5.39-5.85a40.85,40.85,0,0,1-.41,10.21C638,174.87,643.79,176.53,648.62,172.88Z"/><ellipse class="q" cx="651.71" cy="148.44" rx="0.95" ry="1.23" transform="translate(-11.15 62.56) rotate(-5.45)"/><ellipse class="q" cx="640.66" cy="149.92" rx="0.95" ry="1.23" transform="translate(-11.34 61.52) rotate(-5.45)"/><path class="q" d="M648.52,143.91a3.56,3.56,0,0,1,1.14-.95,3.82,3.82,0,0,1,1.41-.45,3.7,3.7,0,0,1,2.84.76.56.56,0,0,1-.42,1h-.07c-.39-.05-.74-.12-1.09-.13a5.88,5.88,0,0,0-1,.06,8,8,0,0,0-1,.23c-.34.09-.71.24-1,.34l-.12,0a.54.54,0,0,1-.68-.36A.53.53,0,0,1,648.52,143.91Z"/><path class="q" d="M636.34,146.1a4.17,4.17,0,0,1,1.21-1.39,5.43,5.43,0,0,1,1.71-.88,5,5,0,0,1,2-.15,3.37,3.37,0,0,1,1.81.86.54.54,0,0,1,0,.8.6.6,0,0,1-.4.17h-.11a11.51,11.51,0,0,0-1.4.08,11.28,11.28,0,0,0-1.25.29c-.42.13-.86.3-1.32.46s-1,.37-1.45.52l-.1,0a.6.6,0,0,1-.75-.39A.53.53,0,0,1,636.34,146.1Z"/><path class="i" d="M647.13,149.72c-2,.06-7.62,3.64-10.38,5.36,0,0-6.32-5.84-6.73-6.17s-.55.13-.42.6,5.94,6.5,5.94,6.5c-1.19,3.53.68,11.57,10.62,12.07,11.63.58,10.09-15,9.3-15.81C653.77,150.8,649.1,149.66,647.13,149.72Z"/><path class="x" d="M627.68,133.3c-.81,2.13,10.75,4.88,12.17,2.2.74-1.39-2.09-2.48-4-2.89S628.42,131.34,627.68,133.3Z"/><path class="x" d="M623.73,138.42c-1.1,1.32,4.18,5.61,5.83,4.05.86-.81,0-2.26-1.12-3.06S624.73,137.2,623.73,138.42Z"/><path class="n" d="M717.85,250.59c.42-.3,7,3.36,7.31,2.11-.4-2.89-12.13-7.19-12-7.8s5.64.5,6.9.11c1.44-.45-3.82-3.37-6.57-3.68-2.58-.29-5.21,2-7.13,2.54-.12,0-3-1.23-7.07-3-2.47,4.16-3.57,6.23-4.57,8.29,3.74,1,6.29,1.57,6.29,1.57a108.58,108.58,0,0,0,12.69,6.76c2.58,1,5.44,2.53,6.1,1.6s-5.75-3.22-5.27-3.84,8.16,3.88,9,3-7.13-4.78-6.82-5.23,8.67,4.1,9.45,3.19S717.44,250.9,717.85,250.59Z"/><path class="r" d="M714.53,255.28c.17-.22,1.2.18,2.5.76-2.38-1.67-4.14-4.22-4.6-8.4,0-1.32-4,5.31-6.64,2.66-3-3-1.44-4.1-.12-6.68-1.11-.45-3.44-1.45-6.38-2.72-1.83,3.08-3,5.11-4.57,8.29,3.74,1,6.29,1.57,6.29,1.57a108.58,108.58,0,0,0,12.69,6.76c2.58,1,5.44,2.53,6.1,1.6S714.05,255.9,714.53,255.28Z"/><polygon class="n" points="611.68 388.95 609.81 404.26 616.74 406.17 622.06 391.83 611.68 388.95"/><polygon class="n" points="654.92 393.39 656.45 405.31 664.09 405.31 664.09 391.4 654.92 393.39"/><path class="e" d="M608.84,395.55l13.39,1.55L640.8,293.54s7.62,47.8,7.94,51.78,3.18,51.78,3.18,51.78l15.3-1.27s2.23-51.94,2.23-58-1.59-82.21-1.59-82.21H615.92Z"/><path class="j" d="M668.06,265.17c-.13-5.84-.2-9.54-.2-9.54H615.92l-.62,12.26C633.26,268.79,651.17,270.43,668.06,265.17Z"/><path class="j" d="M664.79,337.6c-3,3.12-4.92-1.84-7.61-5.52s-8.51-38.14-16.27-53.57c-7.4,20.67-14,50.76-15.86,52.75s-11.39,5.63-12.83-2.59l-3.38,66.88,13.39,1.55L640.8,293.54s7.62,47.8,7.94,51.78,3.18,51.78,3.18,51.78l15.3-1.27s2.23-51.94,2.23-58c0-3.9-.83-45.31-1.3-68.29C665.45,287.18,667.81,334.49,664.79,337.6Z"/><path class="q" d="M598,416c-.21,3.15,5.42,4.59,11.69,1.08s7.41-4.73,8.26-5.81,1.21-7.25.53-8.69-6.69-2.94-8.67-1.45-3.26,4.6-5.11,6.76S598.24,411.79,598,416Z"/><path class="y" d="M609.31,412.47c1.48-.76,6.05-5.35,7.86-9.81-1.86-.9-5.36-1.44-6.73-.41-1.8,1.35-3,4.17-4.64,6.14a44,44,0,0,1-3.61,3C603.79,413.92,607.83,413.23,609.31,412.47Z"/><path class="q" d="M654.56,402.43c1.29-1.59,9.73-1.79,11.86-.86s5,3.9,7.86,4.83,13.54,4,11.55,7.59-30.76.32-31.92-.53S652.55,404.91,654.56,402.43Z"/><path class="y" d="M665.82,409c4.25,2.13,10.78,3.11,15.47,1.12a42.58,42.58,0,0,0-8-3.17c-2.52-.82-5-3.44-6.93-4.26a14.57,14.57,0,0,0-5-.47C659.85,406.44,664.09,408.16,665.82,409Z"/><path class="o" d="M682.43,229c-1.25-1.31-7.13-44.34-11.79-48.25-5-4.21-22-8-22-8s.78,4.54-4.81,5.17-11.27-5.38-11.27-5.38-5.39,2-10,4.12c-1.69-.72-3.39-1.5-4.58-2.11-.74,1.13-1.71,2.6-2.8,4.33-2.19,1.3-4.31,1.69-5.57,3.8s-1.78,6-1.82,8.69c-3.11,5.73-5.93,11.76-7.1,16.57-1.39,5.73,1,15.51,2.16,16,2.13.84,10.41-1.88,13-6.93,0,0,.24,28.08-2.93,41,0,0,23.68,11.48,59.33,0,0,0-2.62-19.62-3.13-32,1.77,8.48,3.64,12.68,4.65,14.06,1.9,2.61,21.34,10.24,26.89,11.61.87-2.37,1.39-7.49,3-9.38C698.78,240.18,683.67,230.31,682.43,229Z"/><path class="z" d="M667.93,197.54c-.35-2.23-2.73-7.34-4.07-5.81s2.08,27.52-2,31-32.51.25-36.12-5.81-.41-15.41-.11-25.42c0-.64-3.57,5.2-4.87,5.06-.28,0,4.87-17.23,4.59-17.28-1-.19-2.64,3-3.33,3-4.15,10.14-8.06,31.26-12.66,32.36s-8.66-6.75-7.1-11.62a38.26,38.26,0,0,0-1.56,4.87c-1.4,5.73,1,15.51,2.15,16,2.13.84,10.41-1.88,13-6.93,0,0,.24,28.08-2.93,41,0,0,23.68,11.48,59.33,0,0,0-2.62-19.62-3.13-32,1.77,8.48,3.64,12.68,4.65,14.06,1.9,2.61,21.34,10.24,26.89,11.61.44-1.2.8-3.12,1.25-5-9.25-2.08-23.74-9.67-24.86-11.58S668.2,199.2,667.93,197.54Z"/><path class="v" d="M668.67,182.08c1.22,1.18-12.76-1.16-14.45-1.7-1.28-.41-4.76-2.35-3.59-4S667.39,180.83,668.67,182.08Z"/><path class="v" d="M681.68,230.46c.82.32,14.79,8.61,15,9.78s-16.85-5.81-17.21-7S681,230.19,681.68,230.46Z"/><path class="v" d="M618,176.85c.85-.47,1.69.38,1.81,1.14s-10,16.94-10.86,16.6S616.56,177.66,618,176.85Z"/><rect class="q" x="619.06" y="152.97" width="24.69" height="14.57" rx="1.67" transform="matrix(-0.37, -0.93, 0.93, -0.37, 713.52, 806.5)"/><g class="w"><path class="i" d="M635.75,155.38a.35.35,0,0,1-.34-.24l-2.23-5.64a1.14,1.14,0,0,0-1.48-.65l-3.55,1.39a.36.36,0,0,1-.48-.21.37.37,0,0,1,.21-.48l3.54-1.4a1.9,1.9,0,0,1,2.46,1.07l2.22,5.64a.37.37,0,0,1-.21.49A.32.32,0,0,1,635.75,155.38Z"/></g><circle class="i" cx="624.46" cy="153.29" r="1.17"/><path class="n" d="M628.22,165.89c-1.69,0-3.4-.19-3.45-.4s6.85.5,6.58-.73c-.12-.52-2-1-4.05-1.11-1.58-.07-3.39.19-3.39,0s7.08-.05,6.36-1.55c-.27-.56-4-.53-5.06-.45a7.37,7.37,0,0,1-2.22.09s.61-1,1.16-1.1,5,1.15,5.38,0c.3-.88-6.38-2-6.73-1.88a7.74,7.74,0,0,0-3.62,3.62c-.56,2,1.54,9.35,1.17,10.14-.05.1-.63,1-1.57,2.38,2,1,4.83,2.21,6.9,3,.54-1.56.88-2.57.93-2.74a14.39,14.39,0,0,0-.29-7.68s4.84.57,5.28-.74C631.83,166,630,165.94,628.22,165.89Z"/><g class="f"><path class="aa" d="M619.16,162.48c-.48,2.06,1.55,9.26,1.19,10-.05.1-.63,1-1.57,2.38,2,1,4.83,2.21,6.9,3,.54-1.56.88-2.57.93-2.74a14.39,14.39,0,0,0-.29-7.68s4.55.53,5.22-.64a34.5,34.5,0,0,1-6.74,0C624.15,166.78,621.39,165.3,619.16,162.48Z"/></g><path class="v" d="M621.92,172.64c-.77.18-3.4,3.21-3.27,5.28S623.64,172.22,621.92,172.64Z"/><ellipse class="t" cx="64.17" cy="399.08" rx="34.71" ry="6.92"/><path class="ab" d="M58.42,354.8s-16.58-.16-23.42-7.52S34.91,335,34.91,335,22.12,330.8,20.2,324.18s3.91-10.52,3.91-10.52-19.25-5.94-10.34-23.79c0,0,15.19-7.21,20.68,7,0,0,5.65-6.29,13-1.7S52.94,318,52.94,318s3.58-6.16,9.78-3.53C70.46,317.73,71.25,340.49,58.42,354.8Z"/><path class="ac" d="M14.64,290.58s36.73,28.95,43.78,64.22a166.31,166.31,0,0,1,3.39,30.68"/><polyline class="ac" points="16.83 304.75 29.1 304.17 28.08 291.01"/><polyline class="ac" points="19.77 308.78 33.06 308.52 31.8 295.24"/><polyline class="ac" points="27.07 327.83 47.56 327.81 49.99 303.32"/><polyline class="ac" points="33.86 343.46 56.41 347.13 63.1 317.79"/><polyline class="ac" points="33.75 339.5 54.68 342.34 59.74 316.14"/><path class="o" d="M69.07,340s16.42-2.23,22.29-10.4-1.47-12.23-1.47-12.23,12.16-5.74,13.23-12.55-5.2-9.95-5.2-9.95,18.35-8.31,7.26-24.9c0,0-16-5.24-19.64,9.53,0,0-6.39-5.52-13.08-.05s-2.59,23.34-2.59,23.34-4.33-5.67-10.16-2.28C52.45,304.75,54.54,327.43,69.07,340Z"/><path class="ad" d="M104.4,270.79S71.62,304.14,69.07,340,75,393.89,75,393.89"/><polyline class="ad" points="104.02 285.12 91.77 286.09 91.13 272.9"/><polyline class="ad" points="101.61 289.49 88.39 290.9 87.97 277.57"/><polyline class="ad" points="96.77 309.3 76.44 311.87 70.95 287.88"/><polyline class="ad" points="92 325.66 70.1 332.15 59.76 303.89"/><polyline class="ad" points="91.61 321.72 71.21 327.18 62.89 301.83"/><path class="u" d="M40.21,355H87a0,0,0,0,1,0,0v33.55A12.85,12.85,0,0,1,74.2,401.42H53.06a12.85,12.85,0,0,1-12.85-12.85V355A0,0,0,0,1,40.21,355Z"/><path class="t" d="M40.21,385.86v2.71a12.85,12.85,0,0,0,12.85,12.85H74.2a12.86,12.86,0,0,0,12.85-12.85V386C83.06,395.64,44.4,395.45,40.21,385.86Z"/><path class="i" d="M87.05,361.16H40.21c-.13,0-.23-.28-.23-.63s.1-.63.23-.63H87.05c.12,0,.22.28.22.63S87.17,361.16,87.05,361.16Z"/><path class="q" d="M490.39,229.43c12.91-3,4.07-28.55,7.26-32.27,6.23-7.25,19.91-8.2,26-.58,7.5,9.36,1.86,30,13.55,30.88C526.83,240.82,508.3,242.58,490.39,229.43Z"/><path class="n" d="M500.48,203.14c-.8,3,.87,15.1,3,18.59a3.8,3.8,0,0,0,4.8,1.57l.84,8.79,12.39-3.42s-3.28-7.19-3.89-11.23a3.25,3.25,0,0,1,.55-2.52c1.9,0,2.34-2.48,2.31-4.07-.06-3.51-3.15-3.43-3.93-.36-1.19.43.37-2.41-2.51-4.48-2.45-1.77-6.52-1.7-7.1-4.31C507,201.7,502.9,205.12,500.48,203.14Z"/><path class="r" d="M516.5,212.47a18.75,18.75,0,0,0,.53-3.11,4.17,4.17,0,0,0-.46,1.13c-1.19.43.37-2.41-2.51-4.48-2.45-1.77-6.52-1.7-7.1-4.31,0,0-4.06,3.42-6.48,1.44a9.37,9.37,0,0,0-.2,2c1.62.73,3.85,0,6.14-1.2C507.26,206,513.84,205.73,516.5,212.47Z"/><path class="r" d="M518.77,221.74c-.48-1.76-1.34-4.1-1.13-5.5-.5,2.18-5.47,5.73-9.34,7.06l.31,3.27C513.34,227.15,516.19,224.55,518.77,221.74Z"/><ellipse class="ae" cx="510.3" cy="209.96" rx="0.91" ry="1.15" transform="translate(-10.71 28.18) rotate(-3.13)"/><ellipse class="ae" cx="502.5" cy="210.39" rx="0.91" ry="1.15" transform="translate(-10.74 27.76) rotate(-3.13)"/><path class="ae" d="M511,209.48c.5-.08.72-.52.92-.4s-.49,1-.89,1S511,209.48,511,209.48Z"/><path class="ae" d="M501.81,210c-.51,0-.78-.43-1-.3s.59.91,1,.95S501.81,210,501.81,210Z"/><path class="ae" d="M508,207a.38.38,0,0,1,.16-.25,3.78,3.78,0,0,1,3.9-.06.39.39,0,0,1,.19.51.4.4,0,0,1-.34.23.33.33,0,0,1-.17,0,3,3,0,0,0-3.14,0,.38.38,0,0,1-.29.06.42.42,0,0,1-.25-.16A.38.38,0,0,1,508,207Z"/><path class="ae" d="M503.71,207.29a.35.35,0,0,0-.18-.23,3.76,3.76,0,0,0-3.89.26.38.38,0,0,0,.21.72.37.37,0,0,0,.17,0,3,3,0,0,1,3.13-.26.42.42,0,0,0,.29,0,.43.43,0,0,0,.24-.18A.39.39,0,0,0,503.71,207.29Z"/><ellipse class="r" cx="518.45" cy="211.56" rx="1.46" ry="0.78" transform="translate(275.55 716.09) rotate(-86.49)"/><path class="i" d="M518.14,215c-.59.09-2.43.64-3.25.71a5.08,5.08,0,0,0-.2-2.33c.86-1.5,1.77-2.94,1.91-3.14s.12-.57-.14-.48a19.32,19.32,0,0,0-2.65,2.09c-2.9.12-6.58-1.23-7.95-1.18s-3.13,1.41-5,2.59c.77,4.05,1.26,10.19,5,10.67,5.52.72,8-3.4,8.77-6.83,1-.34,2.73-1,3.24-1.12C518.63,215.75,518.87,214.87,518.14,215Z"/><path class="af" d="M511.48,198.15c-.7,1.81,6.5,1.42,8.13-.68s-.39-2.67-2.26-2.68S512.11,196.5,511.48,198.15Z"/><path class="af" d="M499.6,197.29c-.1,1.93,10.83-1.36,11.31-4,.25-1.35-2.55-.85-4.33-.28S499.69,195.52,499.6,197.29Z"/><path class="n" d="M550.26,302.72c.79.25,1.94-.9.2-2-.2-.11-1.19-.66-1-.56.46.17,1.09-1-.32-1.84l-8.23-4,.46-14.88-7.21.11s1.06,15.74.8,17a11.15,11.15,0,0,0,0,1.52,5.31,5.31,0,0,0,1.35,4.08c.63.79,2.21,2.18,6.26,4.4a.29.29,0,0,0,.39-.12c.43-1.7-2.39-2.85-2.14-3.51,0,0,5.52,2.48,6.44,2.71,1.62.55,2.43-1,1.42-1.54C551.37,305.38,552,303.44,550.26,302.72Z"/><path class="r" d="M548.72,304a3.11,3.11,0,0,0,1.88.44c-2.5-.89-4.66-2.72-6.54-2.87C544.06,301.6,547.67,303.58,548.72,304Z"/><path class="r" d="M549.48,300.15c.23.09.51-.18.54-.57-.64.32-2.37-1.15-4.28-1.34Z"/><path class="r" d="M551.29,302.27c-.8.29-5.06-2.08-6-2,0,0,3.74,2,5,2.48A.9.9,0,0,0,551.29,302.27Z"/><path class="r" d="M536.74,279.48l-2.56,0s1.06,15.74.8,17a11.15,11.15,0,0,0,0,1.52,5.31,5.31,0,0,0,1.35,4.08c.63.79,2.21,2.18,6.26,4.4a.29.29,0,0,0,.39-.12c.43-1.7-2.39-2.85-2.14-3.51,0,0,5.52,2.48,6.44,2.71a1.51,1.51,0,0,0,1.51-.18c-5.54-2.4-10.27-4.7-11.11-6.62S536.89,287.07,536.74,279.48Z"/><polygon class="n" points="504.87 351.95 498.65 354.7 497.1 343.49 504.42 343.49 504.87 351.95"/><polygon class="n" points="469.49 337.37 463.09 333.61 468.46 323.64 475.2 328.6 469.49 337.37"/><path class="q" d="M506.51,351.31c-1.82-1.41-8.74-.06-9.89,1.91a17.62,17.62,0,0,1-4.94,5.46c-1.59,1-7.52,2.47-8.63,4.32s-.23,4.28.59,4.64A23.07,23.07,0,0,0,498.59,366c5-2.54,11-3.12,11.54-4.64C510.89,359.19,509.16,353.36,506.51,351.31Z"/><path class="y" d="M502,353.29c-2.45.14-4.74.16-5.44,1.34a16,16,0,0,1-4.56,5c-1,.65-4.14,1.54-6.19,2.62C497.87,365.55,504.1,356.18,502,353.29Z"/><path class="n" d="M470.34,249.2s-4.74-7.22-5.82-8.59,0-9.3,1-9.36,3.67-1.12,4-.71,4.46,4.52,4.31,5.75.19,5.44-.21,6.93L475.4,246S471.15,248.47,470.34,249.2Z"/><path class="aa" d="M478,245.52l8.92,14.37s4.82-28,8.93-29.3c4.95-1.6,12-3.65,12.43-3,3,4.52,7.83,3.37,12.74.32,4.8.79,13,.93,15.54,4.2,2,2.66,5.88,25.79,6.35,31.59s0,25.36-.1,25.72c-.18.75-8.64,2.31-9,.71-.24-.95-.23-20.75-.28-24.08s-2.43-12.43-2.83-11.88c-.71,1-1.31,13.35-.93,24.13.15,4.18,5.85,13.54,3.72,21.1-.81,2.87-8.41-7.32-21-7.51s-16.9-1.54-19.25-5.89c-.57-1.05,6-5,6-9-.06-12.46-.74-11.87-.87-16.88-.48-1.16-3.17,10.73-8.67,12.86S469.3,252,469,250.8,477.1,244.39,478,245.52Z"/><path class="j" d="M537.94,266.51c-4.13-6.2-2.07-18.6-9.3-24.8-3.1,12.4-5,22-24.91,16.71-6.71-1.77-5.83-9.44-5.16-16.71-2.81,8.3-6.55,24.91-10.08,25.35-3,.39-14.23-14.09-9.84-20.68l-.63-.86c-.92-1.13-9.27,4.13-9,5.28s15.2,24.27,20.69,22.14,8.19-14,8.67-12.86c.13,5,.81,4.42.87,16.88,0,4-6.55,8-6,9,2.35,4.35,6.7,5.69,19.25,5.89s20.14,10.38,21,7.51c2.13-7.56-3.57-16.92-3.72-21.1-.38-10.78.22-23.15.93-24.13.4-.55,2.79,8.55,2.83,11.88s0,23.13.28,24.08c.4,1.6,8.86,0,9-.71.09-.35.62-18.41.16-25C541.26,267.32,539.36,269.35,537.94,266.51Z"/><rect class="q" x="461.83" y="222.69" width="22.82" height="13.47" rx="1.55" transform="translate(352.03 741.19) rotate(-102.54)"/><g class="w"><path class="i" d="M477.9,225.59a.34.34,0,0,1-.28-.26l-1.22-5.47a1.06,1.06,0,0,0-1.26-.81l-3.44.77a.35.35,0,0,1-.15-.68l3.44-.76a1.75,1.75,0,0,1,2.09,1.33l1.22,5.47a.35.35,0,0,1-.27.41Z"/></g><circle class="i" cx="467.89" cy="222.07" r="1.08"/><path class="n" d="M467.89,229a6.7,6.7,0,0,1,4.09,1.55,1.33,1.33,0,0,1,.09,1.92c1.31.21,1.27,2.06.15,2.16,1.24.37,1.19,2.5-1.29,2,1.23.3.51,1.83-.54,1.69s-4.14-.52-5.23-.67c-.81-.1-.82-3.95.34-6.41A7.1,7.1,0,0,1,467.89,229Z"/><path class="g" d="M499.76,288.12c1.64.33,6.91,2.86,7.79,6.32,3.8,15-2.34,51-2.34,51h-8.5S483.38,284.83,499.76,288.12Z"/><path class="j" d="M507.55,294.44c-.88-3.46-6.15-6-7.79-6.32-8.34-1.67-9,13.19-7.6,28.2,1.92-4.5,2.28-15.52,7.54-12.6s6.3,30.6,1.78,31.22-6.63-6.57-8.28-9.67c1.5,11,3.51,20.14,3.51,20.14h8.5S511.35,309.42,507.55,294.44Z"/><path class="g" d="M529.82,305.13c9.32-7.2-.44-18.59-15.47-24.42-13.66-5.31-23-5.24-27.17-2.07s-21.13,47.49-21.13,47.49l8.66,4.9s20-20.31,19.77-39.69C497.65,293.18,516.31,315.57,529.82,305.13Z"/><path class="j" d="M528.49,289.28c-1,4.08-2.59,7.55-6,8.24-11.37,4.13-28.06-12.53-30-11.37s-10.87,30.34-21.15,26.61c-3,7.56-5.27,13.37-5.27,13.37l8.66,4.9s20-20.31,19.77-39.69c3.17,1.84,21.83,24.23,35.34,13.79C535.58,300.68,534.05,294.63,528.49,289.28Z"/><path class="x" d="M490.26,279.66c-.76,1.2,17.69,4.31,19.25,3.48C514.14,280.67,492.18,276.65,490.26,279.66Z"/><path class="q" d="M444.16,339.26c.29-3.06,7-1.44,10-2.51s6.31-3.63,8.29-4.7,8.32,3.4,8.57,4.7-2.36,9.35-4.35,10.61-9-.33-10.71-.18C450.52,347.66,443.8,343,444.16,339.26Z"/><path class="y" d="M467,335.81c-1.77-1.37-4.49-2.82-5.59-2.23-1.68.9-4.47,3.06-7,4-1.58.56-4.35.25-6.29.55C454.09,342.71,462.33,342.65,467,335.81Z"/></svg>